<svg width="258" height="58" viewBox="0 0 258 58" fill="none" xmlns="http://www.w3.org/2000/svg">
<path d="M92.867 27.7165C92.5078 27.5953 92.1844 27.4722 91.897 27.3474C91.6252 27.2336 91.3719 27.0801 91.1452 26.892C90.9374 26.7178 90.7697 26.5009 90.6534 26.256C90.5287 25.9714 90.4689 25.6626 90.4782 25.352C90.4685 25.0336 90.5355 24.7175 90.6736 24.4305C90.8117 24.1434 91.0169 23.8939 91.2718 23.7028C91.8018 23.2906 92.5437 23.0844 93.4976 23.0844C93.8224 23.0827 94.1468 23.107 94.4677 23.1572C94.7333 23.196 94.9923 23.2718 95.237 23.3822C95.4335 23.4695 95.6063 23.6025 95.7409 23.7702C95.8623 23.9279 95.9264 24.1223 95.9228 24.3213C95.928 24.5113 95.8774 24.6986 95.7773 24.8602C95.6829 25.0066 95.5639 25.1356 95.4256 25.2415C95.2023 25.1094 94.9615 25.0096 94.7102 24.9451C94.3903 24.8572 94.0597 24.8141 93.728 24.8171C93.4526 24.7987 93.1771 24.8511 92.9277 24.9693C92.8543 25.0034 92.7918 25.057 92.7468 25.1242C92.7019 25.1915 92.6764 25.2698 92.673 25.3506C92.6725 25.4094 92.6867 25.4675 92.7142 25.5194C92.7417 25.5714 92.7817 25.6157 92.8307 25.6484C92.9761 25.7435 93.1357 25.8149 93.3036 25.8599L93.9462 26.0661C94.7061 26.3086 95.29 26.618 95.6978 26.9944C96.1056 27.3707 96.3099 27.8818 96.3108 28.5276C96.3189 28.85 96.2497 29.1696 96.1091 29.4598C95.9685 29.7499 95.7604 30.0022 95.5024 30.1956C94.9635 30.6196 94.1672 30.8315 93.1136 30.8315C92.7657 30.8339 92.4184 30.8037 92.0762 30.7413C91.7865 30.6894 91.5051 30.5987 91.2395 30.4718C91.0223 30.3714 90.8314 30.222 90.6817 30.0353C90.5492 29.8633 90.4789 29.6514 90.4823 29.4344C90.4767 29.2162 90.5499 29.0034 90.6884 28.8348C90.8125 28.6801 90.9648 28.5503 91.1371 28.4522C91.39 28.645 91.6696 28.8003 91.967 28.913C92.3107 29.0455 92.6765 29.1114 93.0449 29.107C93.441 29.107 93.7199 29.0463 93.8816 28.9251C93.9534 28.8794 94.0131 28.8168 94.0554 28.7429C94.0976 28.6689 94.1212 28.5858 94.1241 28.5007C94.1274 28.4275 94.1111 28.3547 94.077 28.2898C94.0429 28.225 93.9922 28.1703 93.9301 28.1315C93.7588 28.0269 93.5756 27.9432 93.3844 27.8823L92.867 27.7165Z" fill="#0C6B45"/>
<path d="M97.6204 23.1033C97.6169 22.9598 97.6424 22.8171 97.6954 22.6837C97.7484 22.5504 97.8279 22.4291 97.929 22.3272C98.1534 22.1244 98.445 22.0122 98.7475 22.0122C99.0499 22.0122 99.3416 22.1244 99.566 22.3272C99.765 22.5366 99.876 22.8144 99.876 23.1033C99.876 23.3922 99.765 23.67 99.566 23.8794C99.3416 24.0822 99.0499 24.1944 98.7475 24.1944C98.445 24.1944 98.1534 24.0822 97.929 23.8794C97.8279 23.7775 97.7484 23.6562 97.6954 23.5228C97.6424 23.3895 97.6169 23.2468 97.6204 23.1033ZM99.7761 30.6214C99.6872 30.6375 99.5552 30.6604 99.3814 30.6887C99.2072 30.7169 99.031 30.7308 98.8546 30.7305C98.694 30.7319 98.5335 30.7197 98.375 30.6941C98.2459 30.6751 98.1234 30.6252 98.0179 30.5486C97.9175 30.472 97.8398 30.3695 97.7929 30.2522C97.7352 30.0949 97.7086 29.9279 97.7147 29.7604V24.8252L98.1082 24.7592C98.2828 24.7306 98.4594 24.7162 98.6363 24.716C98.7965 24.7147 98.9565 24.7269 99.1146 24.7524C99.244 24.7716 99.3669 24.8215 99.473 24.8979C99.573 24.9752 99.6503 25.0781 99.6966 25.1957C99.7549 25.3524 99.7819 25.519 99.7761 25.6861V30.6214Z" fill="#0C6B45"/>
<path d="M106.424 28.8752C106.435 29.1539 106.378 29.4311 106.258 29.6827C106.137 29.9342 105.957 30.1524 105.733 30.3182C105.272 30.6658 104.593 30.8396 103.695 30.8396C103.38 30.8412 103.064 30.8169 102.752 30.7668C102.493 30.7297 102.241 30.6553 102.003 30.5459C101.814 30.458 101.648 30.3269 101.518 30.1632C101.4 30.0062 101.338 29.814 101.343 29.6176C101.337 29.446 101.379 29.2763 101.464 29.1272C101.54 28.9991 101.639 28.8859 101.755 28.793C102.014 28.9328 102.284 29.0487 102.564 29.1393C102.903 29.2455 103.258 29.2964 103.613 29.2902C103.811 29.301 104.008 29.2635 104.189 29.181C104.246 29.1568 104.296 29.1166 104.332 29.065C104.367 29.0134 104.387 28.9527 104.389 28.89C104.391 28.8363 104.378 28.783 104.353 28.7357C104.327 28.6883 104.29 28.6486 104.244 28.6206C104.094 28.5376 103.929 28.4841 103.759 28.4629L103.395 28.3902C102.692 28.2527 102.168 28.0367 101.824 27.7421C101.48 27.4475 101.308 27.0249 101.309 26.4743C101.304 26.1948 101.369 25.9186 101.499 25.6708C101.628 25.423 101.817 25.2114 102.049 25.0555C102.306 24.8834 102.591 24.7563 102.891 24.6796C103.246 24.5869 103.611 24.5416 103.977 24.5449C104.259 24.5438 104.541 24.5663 104.819 24.6123C105.055 24.6487 105.286 24.7157 105.505 24.8117C105.684 24.8892 105.841 25.0078 105.966 25.1579C106.079 25.3004 106.139 25.4783 106.135 25.6605C106.14 25.8264 106.104 25.9909 106.032 26.1401C105.968 26.2671 105.879 26.3802 105.772 26.4729C105.679 26.4205 105.582 26.378 105.481 26.3463C105.351 26.3023 105.21 26.2618 105.056 26.225C104.903 26.1886 104.746 26.1577 104.589 26.1334C104.446 26.1113 104.303 26.1001 104.159 26.0997C103.949 26.0908 103.739 26.1219 103.54 26.1913C103.478 26.209 103.424 26.2462 103.384 26.2974C103.345 26.3486 103.323 26.4111 103.322 26.4756C103.322 26.5193 103.333 26.5623 103.354 26.6005C103.376 26.6388 103.406 26.6709 103.443 26.6939C103.587 26.7731 103.743 26.8264 103.904 26.8515L104.28 26.9364C105.056 27.1161 105.608 27.3608 105.935 27.6707C106.097 27.8256 106.224 28.013 106.308 28.2206C106.392 28.4282 106.432 28.6513 106.424 28.8752Z" fill="#0C6B45"/>
<path d="M109.843 28.6085C109.835 28.6941 109.849 28.7804 109.884 28.859C109.919 28.9377 109.974 29.0059 110.043 29.0571C110.214 29.1561 110.41 29.2029 110.607 29.1918C110.733 29.1917 110.859 29.1818 110.983 29.1622C111.098 29.1451 111.212 29.1185 111.323 29.0827C111.397 29.1742 111.46 29.2741 111.51 29.3805C111.566 29.5039 111.593 29.6384 111.59 29.7739C111.593 29.9173 111.563 30.0595 111.503 30.1898C111.443 30.3201 111.354 30.435 111.243 30.5257C111.012 30.7197 110.608 30.8167 110.031 30.8167C109.319 30.8167 108.771 30.655 108.387 30.3317C108.002 30.0083 107.811 29.4829 107.812 28.7553V23.5641C107.901 23.5398 108.027 23.5142 108.193 23.4859C108.367 23.4567 108.544 23.4423 108.721 23.4428C109.01 23.4269 109.297 23.4923 109.551 23.6314C109.749 23.7572 109.848 24.0217 109.849 24.425V25.2011H111.435C111.489 25.3084 111.534 25.4202 111.569 25.5352C111.616 25.6779 111.638 25.8272 111.637 25.9771C111.637 26.2601 111.573 26.4649 111.448 26.5902C111.382 26.6541 111.303 26.7038 111.216 26.736C111.13 26.7682 111.038 26.7823 110.946 26.7774H109.842L109.843 28.6085Z" fill="#0C6B45"/>
<path d="M116.04 30.8275C115.589 30.8318 115.141 30.7645 114.711 30.6281C114.318 30.503 113.955 30.2985 113.644 30.0272C113.333 29.7496 113.089 29.4056 112.929 29.0207C112.746 28.5704 112.658 28.0877 112.669 27.602C112.656 27.1302 112.745 26.6612 112.929 26.2264C113.081 25.873 113.307 25.5568 113.593 25.2994C113.879 25.0419 114.217 24.8493 114.584 24.7349C114.945 24.618 115.321 24.5584 115.7 24.5584C116.098 24.5534 116.494 24.6191 116.87 24.7524C117.204 24.873 117.513 25.0559 117.779 25.2913C118.032 25.5154 118.235 25.791 118.373 26.0997C118.517 26.4242 118.589 26.7756 118.586 27.1304C118.594 27.2458 118.577 27.3615 118.538 27.4701C118.498 27.5787 118.436 27.6778 118.356 27.761C118.176 27.9184 117.951 28.0159 117.713 28.0399L114.718 28.4885C114.762 28.6211 114.834 28.7429 114.928 28.8464C115.021 28.9498 115.136 29.0326 115.264 29.0894C115.559 29.2268 115.881 29.295 116.207 29.2889C116.525 29.2913 116.843 29.2487 117.15 29.1622C117.402 29.0949 117.645 28.9948 117.872 28.8644C118.006 28.9504 118.118 29.0667 118.199 29.204C118.265 29.3105 118.308 29.4298 118.325 29.554C118.341 29.6782 118.332 29.8045 118.296 29.9246C118.261 30.0448 118.2 30.1561 118.119 30.2513C118.037 30.3466 117.937 30.4235 117.823 30.4772C117.55 30.6193 117.255 30.7137 116.95 30.7561C116.649 30.8024 116.345 30.8263 116.04 30.8275ZM115.7 26.062C115.527 26.0578 115.355 26.0909 115.196 26.159C115.065 26.2167 114.947 26.3017 114.851 26.4083C114.763 26.5075 114.695 26.6228 114.651 26.7478C114.607 26.8706 114.58 26.999 114.572 27.1291L116.646 26.7896C116.608 26.6039 116.514 26.4345 116.376 26.3045C116.287 26.2195 116.18 26.154 116.064 26.1123C115.947 26.0705 115.823 26.0534 115.7 26.062Z" fill="#0C6B45"/>
<path d="M122.77 24.5584C123.099 24.5567 123.428 24.6021 123.745 24.6931C124.047 24.7768 124.329 24.9187 124.576 25.1108C124.831 24.9417 125.105 24.8059 125.394 24.7066C126.045 24.5094 126.737 24.4968 127.395 24.6702C127.68 24.7463 127.947 24.8761 128.183 25.0529C128.421 25.2351 128.61 25.4723 128.736 25.744C128.882 26.0736 128.952 26.4318 128.942 26.7922V30.6119C128.816 30.6449 128.688 30.6692 128.559 30.6847C128.38 30.7093 128.2 30.7214 128.02 30.721C127.859 30.7224 127.699 30.7102 127.54 30.6847C127.411 30.6657 127.289 30.6157 127.183 30.5392C127.083 30.4625 127.005 30.3601 126.958 30.2427C126.901 30.0854 126.874 29.9184 126.88 29.751V26.8623C126.889 26.7645 126.875 26.666 126.839 26.5745C126.804 26.4831 126.747 26.4013 126.674 26.3355C126.512 26.2186 126.316 26.1606 126.116 26.1711C125.991 26.1739 125.868 26.2009 125.753 26.2506C125.647 26.2891 125.549 26.3441 125.462 26.4136C125.469 26.4436 125.473 26.4743 125.474 26.5053V30.6213C125.344 30.6533 125.212 30.6776 125.079 30.6941C124.904 30.7184 124.728 30.7306 124.552 30.7305C124.391 30.7318 124.231 30.7197 124.072 30.6941C123.943 30.6751 123.821 30.6252 123.715 30.5486C123.615 30.4719 123.537 30.3695 123.49 30.2522C123.433 30.0949 123.406 29.9278 123.412 29.7604V26.8623C123.421 26.7628 123.405 26.6626 123.366 26.5707C123.326 26.4788 123.265 26.398 123.187 26.3355C123.03 26.2237 122.841 26.1661 122.648 26.1711C122.52 26.1682 122.392 26.1911 122.272 26.2385C122.18 26.276 122.09 26.3182 122.003 26.3651V30.6213C121.877 30.6543 121.749 30.6787 121.62 30.6941C121.442 30.7187 121.262 30.7308 121.081 30.7305C120.921 30.7318 120.76 30.7197 120.602 30.6941C120.473 30.6751 120.35 30.6252 120.245 30.5486C120.144 30.4719 120.067 30.3695 120.02 30.2522C119.962 30.0949 119.935 29.9278 119.942 29.7604V26.0997C119.931 25.9161 119.978 25.7336 120.076 25.5783C120.182 25.4364 120.312 25.3135 120.459 25.2145C120.772 25.0024 121.118 24.8426 121.483 24.7416C121.901 24.6182 122.334 24.5565 122.77 24.5584Z" fill="#0C6B45"/>
<path d="M132.992 24.5584C133.394 24.5549 133.795 24.6001 134.186 24.6931C134.516 24.7683 134.828 24.9054 135.107 25.0973C135.358 25.2748 135.561 25.5124 135.696 25.7885C135.84 26.0974 135.91 26.4354 135.902 26.7761V29.4923C135.91 29.6803 135.847 29.8643 135.726 30.0083C135.605 30.1443 135.464 30.2606 135.308 30.3532C134.782 30.6685 134.043 30.8262 133.089 30.8262C132.699 30.8303 132.31 30.7897 131.93 30.7049C131.616 30.6363 131.316 30.5132 131.045 30.3411C130.805 30.187 130.609 29.9741 130.475 29.7227C130.337 29.4527 130.269 29.1527 130.276 28.8496C130.276 28.2918 130.441 27.8634 130.773 27.5643C131.104 27.2652 131.618 27.0792 132.313 27.0065L133.901 26.8367V26.7518C133.907 26.6465 133.88 26.542 133.825 26.4522C133.769 26.3624 133.688 26.2916 133.591 26.2493C133.309 26.1338 133.005 26.0818 132.701 26.097C132.399 26.0964 132.098 26.129 131.803 26.194C131.534 26.252 131.271 26.3331 131.015 26.4366C130.898 26.3508 130.805 26.2362 130.746 26.1038C130.674 25.9584 130.637 25.7984 130.637 25.6362C130.627 25.4563 130.68 25.2786 130.788 25.1337C130.915 24.9898 131.075 24.8793 131.255 24.8117C131.523 24.7147 131.802 24.6496 132.085 24.6177C132.386 24.5789 132.689 24.5591 132.992 24.5584ZM133.089 29.3239C133.241 29.3228 133.393 29.3088 133.543 29.2821C133.672 29.2656 133.798 29.2263 133.913 29.1662V28.1962L133.04 28.2689C132.846 28.2766 132.656 28.3263 132.483 28.4144C132.415 28.4477 132.359 28.4998 132.32 28.5643C132.281 28.6288 132.262 28.703 132.264 28.7782C132.262 28.8541 132.278 28.9294 132.311 28.998C132.343 29.0665 132.392 29.1265 132.452 29.173C132.577 29.274 132.79 29.3239 133.089 29.3239Z" fill="#0C6B45"/>
<path d="M147.131 29.433C147.145 29.6284 147.098 29.8234 146.996 29.9908C146.879 30.1353 146.735 30.2549 146.571 30.3424C146.436 30.4175 146.294 30.4806 146.147 30.5311C145.964 30.5951 145.778 30.6478 145.589 30.6887C145.163 30.7786 144.728 30.8238 144.292 30.8234C143.737 30.8277 143.185 30.7482 142.655 30.5876C142.168 30.4422 141.716 30.1987 141.326 29.8722C140.945 29.5447 140.64 29.1365 140.436 28.6771C140.215 28.1377 140.103 27.5595 140.109 26.9765C140.114 26.3935 140.235 25.8174 140.465 25.2819C140.688 24.8088 141.009 24.3893 141.409 24.0518C141.805 23.7215 142.263 23.4721 142.756 23.3175C143.26 23.1561 143.786 23.0742 144.315 23.075C145.082 23.075 145.69 23.1985 146.139 23.4455C146.588 23.6925 146.813 24.0136 146.813 24.4088C146.816 24.6003 146.761 24.7883 146.655 24.9477C146.559 25.0921 146.435 25.2158 146.291 25.3115C146.049 25.1715 145.795 25.052 145.533 24.9545C145.205 24.8327 144.858 24.7728 144.509 24.778C143.83 24.778 143.291 24.972 142.892 25.36C142.493 25.7481 142.293 26.287 142.292 26.9768C142.285 27.3058 142.34 27.6333 142.455 27.9415C142.547 28.1866 142.692 28.4083 142.88 28.5907C143.068 28.7731 143.294 28.9117 143.541 28.9965C143.791 29.0823 144.053 29.1251 144.317 29.1231C144.476 29.125 144.635 29.1087 144.79 29.0746C144.9 29.052 145.006 29.0153 145.106 28.9655V27.8256H143.808C143.752 27.7131 143.707 27.5953 143.673 27.474C143.629 27.3245 143.606 27.1692 143.607 27.0132C143.607 26.7222 143.674 26.512 143.807 26.3826C143.875 26.3176 143.957 26.2669 144.045 26.2336C144.134 26.2003 144.228 26.185 144.323 26.1886H146.372C146.475 26.1783 146.579 26.191 146.676 26.2258C146.773 26.2605 146.862 26.3165 146.935 26.3896C147.008 26.4627 147.064 26.5511 147.099 26.6485C147.134 26.7458 147.146 26.8497 147.136 26.9526L147.131 29.433Z" fill="#0C6B45"/>
<path d="M151.846 30.8275C151.396 30.8318 150.948 30.7644 150.519 30.6281C150.126 30.503 149.763 30.2985 149.452 30.0272C149.141 29.7496 148.897 29.4056 148.737 29.0207C148.554 28.5705 148.465 28.0878 148.475 27.602C148.463 27.1301 148.552 26.6611 148.737 26.2264C148.888 25.8729 149.114 25.5566 149.4 25.2991C149.686 25.0416 150.024 24.8491 150.391 24.7349C150.751 24.618 151.128 24.5584 151.507 24.5584C151.905 24.5532 152.302 24.6189 152.677 24.7524C153.012 24.873 153.321 25.0559 153.587 25.2913C153.84 25.5154 154.043 25.791 154.181 26.0997C154.324 26.4243 154.396 26.7757 154.393 27.1304C154.4 27.2458 154.384 27.3615 154.344 27.4701C154.305 27.5787 154.243 27.6778 154.162 27.761C153.982 27.9184 153.758 28.0159 153.52 28.0399L150.524 28.4885C150.568 28.6204 150.638 28.7419 150.731 28.8453C150.824 28.9487 150.937 29.0318 151.063 29.0894C151.358 29.2268 151.681 29.295 152.006 29.2888C152.325 29.2912 152.643 29.2486 152.95 29.1622C153.202 29.0949 153.444 28.9948 153.67 28.8644C153.808 28.9473 153.925 29.0619 154.01 29.1986C154.076 29.3051 154.119 29.4244 154.135 29.5486C154.152 29.6728 154.142 29.7991 154.107 29.9192C154.071 30.0394 154.011 30.1507 153.929 30.2459C153.848 30.3412 153.747 30.4181 153.634 30.4718C153.361 30.6139 153.066 30.7083 152.761 30.7507C152.458 30.799 152.153 30.8247 151.846 30.8275ZM151.507 26.062C151.334 26.0578 151.163 26.0909 151.004 26.159C150.872 26.2167 150.754 26.3016 150.658 26.4083C150.57 26.5076 150.502 26.6229 150.458 26.7478C150.414 26.8705 150.387 26.9989 150.379 27.1291L152.452 26.7896C152.415 26.6039 152.321 26.4345 152.183 26.3045C152.093 26.2195 151.987 26.154 151.87 26.1123C151.754 26.0705 151.63 26.0534 151.507 26.062Z" fill="#0C6B45"/>
<path d="M160.722 28.8752C160.734 29.1539 160.677 29.4311 160.556 29.6827C160.436 29.9342 160.255 30.1524 160.031 30.3182C159.57 30.6658 158.891 30.8396 157.994 30.8396C157.678 30.8412 157.363 30.8169 157.051 30.7668C156.791 30.73 156.539 30.6555 156.3 30.5459C156.111 30.458 155.945 30.3269 155.815 30.1632C155.697 30.0064 155.635 29.8141 155.639 29.6176C155.633 29.446 155.675 29.2763 155.76 29.1271C155.836 28.9991 155.935 28.8859 156.051 28.793C156.31 28.9327 156.58 29.0486 156.86 29.1393C157.199 29.2455 157.553 29.2964 157.908 29.2902C158.106 29.3009 158.304 29.2635 158.484 29.181C158.542 29.1568 158.592 29.1164 158.627 29.0648C158.662 29.0132 158.682 28.9525 158.684 28.89C158.686 28.8362 158.673 28.783 158.647 28.7357C158.622 28.6883 158.584 28.6486 158.538 28.6205C158.388 28.5376 158.224 28.4841 158.053 28.4629L157.69 28.3902C156.986 28.2527 156.463 28.0367 156.12 27.7421C155.777 27.4475 155.605 27.0249 155.604 26.4743C155.599 26.1948 155.664 25.9186 155.793 25.6708C155.922 25.4229 156.112 25.2114 156.344 25.0555C156.601 24.8834 156.887 24.7563 157.187 24.6796C157.539 24.5875 157.901 24.5422 158.265 24.5449C158.547 24.5438 158.83 24.5663 159.108 24.6123C159.344 24.6486 159.574 24.7157 159.793 24.8117C159.971 24.8892 160.129 25.0078 160.253 25.1579C160.367 25.3004 160.427 25.4782 160.423 25.6605C160.428 25.8262 160.393 25.9907 160.321 26.1401C160.257 26.2672 160.168 26.3803 160.059 26.4729C159.967 26.4205 159.87 26.378 159.768 26.3463C159.639 26.3022 159.498 26.2618 159.344 26.225C159.19 26.1886 159.035 26.1576 158.878 26.1334C158.735 26.1104 158.591 26.0982 158.447 26.097C158.237 26.0881 158.027 26.1192 157.828 26.1886C157.766 26.2063 157.711 26.2435 157.672 26.2947C157.633 26.3459 157.611 26.4084 157.61 26.4729C157.61 26.5166 157.621 26.5596 157.642 26.5978C157.663 26.636 157.694 26.6682 157.731 26.6912C157.874 26.7704 158.03 26.8237 158.192 26.8488L158.568 26.9337C159.344 27.1133 159.896 27.3581 160.224 27.668C160.388 27.8224 160.517 28.0099 160.603 28.218C160.689 28.4261 160.73 28.6501 160.722 28.8752Z" fill="#0C6B45"/>
<path d="M164.142 28.6085C164.134 28.6942 164.148 28.7806 164.183 28.8592C164.218 28.9378 164.273 29.006 164.343 29.0571C164.513 29.1561 164.709 29.2029 164.906 29.1918C165.032 29.1917 165.157 29.1818 165.282 29.1622C165.397 29.1451 165.51 29.1185 165.621 29.0827C165.696 29.1742 165.759 29.2741 165.81 29.3805C165.865 29.504 165.892 29.6385 165.888 29.7739C165.891 29.9172 165.862 30.0594 165.802 30.1896C165.743 30.3199 165.654 30.4348 165.543 30.5257C165.312 30.7197 164.908 30.8167 164.33 30.8167C163.619 30.8167 163.072 30.655 162.688 30.3317C162.305 30.0083 162.112 29.4829 162.111 28.7553V23.5641C162.2 23.5398 162.328 23.5142 162.494 23.4859C162.668 23.4567 162.844 23.4423 163.021 23.4428C163.31 23.4269 163.598 23.4923 163.852 23.6314C164.05 23.7572 164.149 24.0217 164.149 24.425V25.2011H165.732C165.786 25.3083 165.831 25.4201 165.866 25.5352C165.912 25.678 165.934 25.8272 165.932 25.9771C165.932 26.2601 165.87 26.4649 165.745 26.5902C165.678 26.6539 165.599 26.7034 165.512 26.7356C165.426 26.7678 165.334 26.782 165.241 26.7774H164.138L164.142 28.6085Z" fill="#0C6B45"/>
<path d="M169.72 24.5584C170.122 24.5549 170.523 24.6002 170.915 24.6931C171.245 24.7683 171.558 24.9054 171.836 25.0973C172.087 25.2748 172.289 25.5125 172.424 25.7885C172.568 26.0974 172.638 26.4354 172.63 26.7761V29.4923C172.638 29.6801 172.576 29.8642 172.455 30.0083C172.334 30.1444 172.193 30.2607 172.036 30.3532C171.51 30.6685 170.771 30.8262 169.817 30.8262C169.428 30.8304 169.039 30.7897 168.659 30.7049C168.345 30.6363 168.046 30.5132 167.774 30.3411C167.535 30.187 167.338 29.9741 167.204 29.7227C167.066 29.4528 166.997 29.1528 167.004 28.8496C167.004 28.2918 167.169 27.8634 167.501 27.5643C167.832 27.2652 168.346 27.0792 169.041 27.0065L170.629 26.8367V26.7518C170.635 26.6467 170.608 26.5422 170.553 26.4525C170.498 26.3627 170.417 26.2918 170.321 26.2493C170.038 26.1338 169.734 26.0818 169.429 26.097C169.127 26.0965 168.826 26.129 168.531 26.1941C168.262 26.252 167.998 26.3331 167.743 26.4366C167.626 26.3508 167.533 26.2362 167.474 26.1038C167.402 25.9584 167.365 25.7984 167.365 25.6363C167.356 25.4561 167.409 25.2784 167.517 25.1337C167.644 24.9898 167.804 24.8793 167.983 24.8117C168.252 24.7147 168.531 24.6496 168.814 24.6177C169.115 24.5789 169.417 24.5591 169.72 24.5584ZM169.989 22.1817C170.135 22.2221 170.256 22.2545 170.353 22.2787C170.432 22.3004 170.514 22.3126 170.596 22.3151C170.672 22.3194 170.748 22.3076 170.819 22.2804C170.89 22.2533 170.954 22.2114 171.008 22.1575C171.087 22.0758 171.156 21.9854 171.214 21.888C171.344 21.8838 171.474 21.9055 171.596 21.9518C171.718 21.998 171.829 22.0679 171.924 22.1575C172.018 22.247 172.092 22.3554 172.141 22.4754C172.189 22.5955 172.213 22.7245 172.208 22.854C172.208 23.2178 172.095 23.4846 171.869 23.6543C171.622 23.8306 171.323 23.9202 171.02 23.909C170.907 23.9092 170.793 23.9034 170.68 23.8915C170.553 23.8762 170.427 23.8496 170.305 23.812L169.82 23.6665L169.535 23.5883C169.462 23.5684 169.386 23.558 169.31 23.5573C169.236 23.5525 169.161 23.5635 169.092 23.5898C169.022 23.616 168.959 23.6569 168.906 23.7096C168.826 23.7922 168.755 23.8825 168.693 23.9791C168.563 23.9833 168.433 23.9616 168.312 23.9154C168.19 23.8691 168.079 23.7992 167.984 23.7096C167.891 23.6198 167.817 23.5113 167.767 23.391C167.718 23.2708 167.695 23.1415 167.699 23.0117C167.695 22.8582 167.727 22.706 167.792 22.567C167.857 22.4281 167.954 22.3063 168.075 22.2114C168.188 22.1223 168.318 22.0564 168.457 22.0173C168.597 21.9771 168.742 21.9567 168.887 21.9567C169.015 21.9588 169.143 21.971 169.27 21.9931C169.512 22.0429 169.751 22.1059 169.987 22.1817H169.989ZM169.82 29.3225C169.972 29.3214 170.125 29.3074 170.275 29.2808C170.404 29.2642 170.529 29.225 170.644 29.1649V28.1948L169.771 28.2676C169.577 28.2753 169.386 28.3249 169.213 28.4131C169.146 28.4464 169.089 28.4984 169.051 28.5629C169.012 28.6274 168.993 28.7017 168.995 28.7769C168.993 28.8529 169.009 28.9282 169.042 28.9967C169.075 29.0653 169.123 29.1252 169.184 29.1716C169.306 29.274 169.518 29.3239 169.817 29.3239L169.82 29.3225Z" fill="#0C6B45"/>
<path d="M180.354 27.6869C180.363 28.1465 180.285 28.6036 180.124 29.0342C179.983 29.407 179.762 29.7442 179.476 30.0218C179.189 30.2931 178.848 30.4998 178.475 30.6281C178.057 30.7703 177.618 30.84 177.177 30.8342C176.735 30.8402 176.296 30.7662 175.88 30.6159C175.507 30.4799 175.166 30.2674 174.88 29.9921C174.595 29.7127 174.374 29.3755 174.231 29.0032C173.923 28.1613 173.923 27.238 174.231 26.3961C174.374 26.0243 174.595 25.6875 174.88 25.4085C175.166 25.1328 175.507 24.9199 175.88 24.7834C176.296 24.6331 176.735 24.5591 177.177 24.5651C177.62 24.5593 178.06 24.6356 178.475 24.7901C178.848 24.9301 179.188 25.1446 179.476 25.4207C179.76 25.6997 179.981 26.0365 180.124 26.4083C180.281 26.8161 180.359 27.2499 180.354 27.6869ZM176.11 27.6869C176.11 28.18 176.205 28.5581 176.396 28.8213C176.484 28.9482 176.604 29.0507 176.742 29.1194C176.881 29.1882 177.035 29.221 177.189 29.2147C177.344 29.221 177.497 29.1871 177.634 29.1162C177.772 29.0453 177.888 28.94 177.972 28.8105C178.152 28.5411 178.242 28.1652 178.242 27.6828C178.242 27.2005 178.149 26.8268 177.963 26.5618C177.871 26.4394 177.752 26.3401 177.615 26.2716C177.478 26.2032 177.328 26.1675 177.175 26.1675C177.022 26.1675 176.871 26.2032 176.734 26.2716C176.597 26.3401 176.478 26.4394 176.386 26.5618C176.2 26.8277 176.106 27.2027 176.106 27.6869H176.11Z" fill="#0C6B45"/>
<path d="M184.259 27.6869C184.248 27.2129 184.33 26.7414 184.501 26.2991C184.649 25.9266 184.879 25.5926 185.175 25.3223C185.466 25.061 185.809 24.8648 186.181 24.747C186.583 24.6186 187.002 24.555 187.424 24.5584C187.582 24.5583 187.741 24.5728 187.897 24.6015C188.025 24.6226 188.151 24.6569 188.272 24.7039V22.7395C188.4 22.7058 188.53 22.6797 188.66 22.6614C188.841 22.6326 189.023 22.6182 189.206 22.6182C189.367 22.6169 189.527 22.629 189.686 22.6546C189.815 22.6741 189.937 22.724 190.043 22.8001C190.142 22.8766 190.218 22.9799 190.261 23.0979C190.315 23.2556 190.339 23.4218 190.334 23.5883V29.3333C190.334 29.5193 190.284 29.702 190.189 29.862C190.094 30.0221 189.958 30.1536 189.795 30.2427C189.511 30.4179 189.205 30.5538 188.885 30.6469C188.002 30.8938 187.066 30.8789 186.191 30.6038C185.798 30.4726 185.438 30.2575 185.136 29.9733C184.847 29.6964 184.624 29.3592 184.481 28.9857C184.326 28.5705 184.251 28.1299 184.259 27.6869ZM187.703 26.1711C187.266 26.1711 186.93 26.2964 186.696 26.547C186.462 26.7976 186.344 27.1776 186.344 27.6869C186.344 28.1881 186.454 28.5662 186.672 28.8213C186.89 29.0764 187.204 29.2035 187.615 29.2026C187.749 29.2048 187.883 29.1824 188.01 29.1366C188.108 29.1016 188.199 29.0501 188.279 28.9843V26.3166C188.104 26.2166 187.904 26.1663 187.703 26.1711Z" fill="#0C6B45"/>
<path d="M198.082 27.6869C198.091 28.1465 198.013 28.6036 197.852 29.0342C197.711 29.407 197.49 29.7442 197.204 30.0218C196.917 30.2931 196.576 30.4998 196.203 30.6281C195.785 30.7703 195.347 30.84 194.905 30.8342C194.463 30.8402 194.024 30.7662 193.608 30.6159C193.235 30.4799 192.894 30.2674 192.608 29.9921C192.324 29.7127 192.102 29.3755 191.959 29.0032C191.652 28.1613 191.652 27.238 191.959 26.3961C192.102 26.0243 192.324 25.6875 192.608 25.4085C192.894 25.1328 193.235 24.9199 193.608 24.7834C194.024 24.6331 194.463 24.5591 194.905 24.5651C195.348 24.5593 195.788 24.6356 196.203 24.7901C196.576 24.9301 196.917 25.1446 197.204 25.4207C197.488 25.6997 197.709 26.0365 197.852 26.4083C198.009 26.8161 198.087 27.2499 198.082 27.6869ZM193.838 27.6869C193.838 28.18 193.934 28.5581 194.124 28.8213C194.213 28.9483 194.332 29.0509 194.47 29.1196C194.609 29.1884 194.763 29.2211 194.918 29.2147C195.072 29.221 195.225 29.1871 195.362 29.1162C195.5 29.0453 195.616 28.94 195.7 28.8105C195.88 28.5411 195.97 28.1652 195.97 27.6828C195.97 27.2005 195.877 26.8268 195.691 26.5618C195.599 26.4394 195.48 26.3401 195.343 26.2716C195.207 26.2032 195.056 26.1675 194.903 26.1675C194.75 26.1675 194.599 26.2032 194.462 26.2716C194.325 26.3401 194.206 26.4394 194.115 26.5618C193.93 26.8277 193.838 27.2027 193.838 27.6869Z" fill="#0C6B45"/>
<path d="M204.521 30.585C204.384 30.618 204.244 30.6423 204.104 30.6578C203.916 30.6818 203.728 30.694 203.539 30.6941C203.375 30.6963 203.21 30.6823 203.049 30.6524C202.919 30.6292 202.797 30.5771 202.69 30.5001C202.59 30.4224 202.514 30.3171 202.472 30.197C202.418 30.0327 202.394 29.8604 202.399 29.6877V23.9764C202.394 23.9051 202.404 23.8337 202.427 23.7661C202.45 23.6986 202.486 23.6363 202.534 23.5829C202.642 23.4799 202.773 23.403 202.915 23.3579C203.221 23.2541 203.537 23.1832 203.858 23.1464C204.21 23.1017 204.564 23.0792 204.919 23.079C206.034 23.079 206.888 23.3175 207.479 23.7945C208.07 24.2714 208.365 24.9181 208.364 25.7346C208.369 26.1024 208.306 26.468 208.176 26.8125C208.055 27.1256 207.864 27.4074 207.619 27.637C207.35 27.8821 207.031 28.0659 206.685 28.176C206.263 28.3078 205.823 28.3711 205.381 28.3633H204.52L204.521 30.585ZM205.152 26.6926C205.433 26.7114 205.711 26.6277 205.934 26.4568C206.114 26.2996 206.204 26.0589 206.204 25.7346C206.212 25.6028 206.191 25.4708 206.142 25.3482C206.093 25.2256 206.017 25.1155 205.92 25.0259C205.729 24.8607 205.452 24.7776 205.088 24.7767C204.954 24.7767 204.853 24.7767 204.768 24.7834C204.68 24.7875 204.593 24.7974 204.506 24.8131V26.6926H205.152Z" fill="#0C6B45"/>
<path d="M211.469 30.6214C211.344 30.6544 211.217 30.6787 211.088 30.6941C210.909 30.7187 210.729 30.7308 210.549 30.7305C210.389 30.7319 210.229 30.7198 210.071 30.6941C209.942 30.6749 209.819 30.625 209.712 30.5486C209.612 30.4719 209.535 30.3694 209.489 30.2522C209.431 30.095 209.404 29.9279 209.409 29.7604V26.1226C209.405 25.9572 209.441 25.7932 209.513 25.6443C209.586 25.5055 209.687 25.3835 209.809 25.286C209.956 25.1708 210.118 25.0752 210.289 25.0017C210.488 24.9133 210.692 24.8381 210.901 24.7767C211.122 24.7115 211.347 24.6611 211.574 24.6258C211.807 24.5893 212.042 24.5708 212.278 24.5705C212.6 24.5539 212.921 24.6321 213.199 24.7955C213.426 24.9455 213.539 25.1898 213.539 25.5285C213.539 25.6416 213.523 25.7542 213.49 25.8626C213.461 25.9654 213.42 26.0648 213.369 26.159C213.199 26.159 213.026 26.1671 212.848 26.1833C212.67 26.1994 212.496 26.2237 212.326 26.256C212.157 26.2884 211.998 26.3234 211.848 26.3598C211.717 26.3897 211.589 26.4321 211.465 26.4864L211.469 30.6214Z" fill="#0C6B45"/>
<path d="M220.625 27.6869C220.633 28.1465 220.555 28.6036 220.394 29.0342C220.253 29.407 220.032 29.7442 219.746 30.0218C219.46 30.2931 219.118 30.4998 218.745 30.6281C218.327 30.7703 217.889 30.84 217.448 30.8342C217.005 30.8402 216.566 30.7662 216.15 30.6159C215.777 30.4799 215.437 30.2674 215.15 29.9921C214.866 29.7127 214.644 29.3755 214.501 29.0032C214.194 28.1613 214.194 27.238 214.501 26.3961C214.644 26.0243 214.866 25.6875 215.15 25.4085C215.436 25.1328 215.777 24.9199 216.15 24.7834C216.566 24.6331 217.005 24.5591 217.448 24.5651C217.89 24.5593 218.33 24.6356 218.745 24.7901C219.118 24.9301 219.459 25.1446 219.746 25.4207C220.03 25.6997 220.251 26.0365 220.394 26.4083C220.551 26.8161 220.629 27.2499 220.625 27.6869ZM216.38 27.6869C216.38 28.18 216.475 28.5586 216.666 28.8213C216.755 28.9483 216.874 29.0509 217.013 29.1196C217.151 29.1884 217.305 29.2211 217.46 29.2147C217.614 29.221 217.767 29.1871 217.905 29.1162C218.042 29.0453 218.158 28.94 218.242 28.8105C218.422 28.5411 218.512 28.1652 218.512 27.6828C218.512 27.2005 218.419 26.8268 218.233 26.5618C218.141 26.4394 218.022 26.3401 217.886 26.2716C217.749 26.2032 217.598 26.1675 217.445 26.1675C217.292 26.1675 217.141 26.2032 217.004 26.2716C216.867 26.3401 216.748 26.4394 216.657 26.5618C216.473 26.8277 216.38 27.2027 216.38 27.6869Z" fill="#0C6B45"/>
<path d="M224.868 24.5584C225.294 24.5535 225.717 24.613 226.124 24.7349C226.464 24.8344 226.785 24.9877 227.075 25.1889C227.225 25.2898 227.355 25.4172 227.458 25.5648C227.557 25.7267 227.604 25.9146 227.593 26.1038V30.3478C227.603 30.7321 227.52 31.113 227.35 31.458C227.193 31.7642 226.967 32.0299 226.69 32.2341C226.395 32.4475 226.062 32.6017 225.708 32.6881C225.311 32.7879 224.904 32.8368 224.495 32.8337C223.76 32.8337 223.182 32.7348 222.761 32.5372C222.57 32.461 222.406 32.3274 222.293 32.1547C222.18 31.9821 222.124 31.7787 222.131 31.5726C222.127 31.4019 222.167 31.2332 222.247 31.0821C222.309 30.9574 222.398 30.8476 222.507 30.7601C222.759 30.8969 223.026 31.0067 223.302 31.0875C223.598 31.1772 223.906 31.2226 224.216 31.2222C224.577 31.2391 224.936 31.164 225.259 31.004C225.384 30.9359 225.487 30.8336 225.556 30.709C225.625 30.5844 225.656 30.4427 225.647 30.3007V30.1067C225.262 30.2622 224.85 30.3365 224.435 30.3249C224.083 30.327 223.733 30.2719 223.399 30.1619C223.078 30.0568 222.784 29.883 222.538 29.6526C222.277 29.4017 222.075 29.0974 221.943 28.7607C221.785 28.347 221.708 27.9062 221.718 27.4632C221.709 27.023 221.789 26.5856 221.956 26.1779C222.101 25.8306 222.325 25.5216 222.61 25.2752C222.901 25.0283 223.239 24.8448 223.605 24.7362C224.015 24.6141 224.441 24.5541 224.868 24.5584ZM225.62 26.3166C225.541 26.2753 225.458 26.2428 225.372 26.2196C225.241 26.1846 225.105 26.1683 224.968 26.1711C224.572 26.1711 224.275 26.2825 224.078 26.5053C223.88 26.728 223.781 27.0451 223.78 27.4565C223.78 27.9254 223.879 28.2631 224.078 28.4697C224.175 28.5714 224.293 28.6514 224.423 28.7045C224.554 28.7577 224.694 28.7828 224.835 28.7782C225.116 28.7935 225.394 28.7122 225.623 28.5478L225.62 26.3166Z" fill="#0C6B45"/>
<path d="M231.295 30.6214C231.17 30.6544 231.042 30.6787 230.913 30.6941C230.734 30.7187 230.554 30.7309 230.374 30.7305C230.213 30.7318 230.053 30.7197 229.894 30.6941C229.765 30.6751 229.643 30.6252 229.537 30.5486C229.437 30.4719 229.359 30.3695 229.312 30.2522C229.254 30.0949 229.228 29.9279 229.234 29.7604V26.1226C229.229 25.9573 229.264 25.7933 229.336 25.6443C229.41 25.5055 229.511 25.3834 229.634 25.286C229.78 25.1708 229.941 25.0752 230.112 25.0017C230.312 24.9133 230.516 24.8381 230.725 24.7767C230.946 24.7115 231.171 24.6611 231.399 24.6258C231.632 24.5893 231.867 24.5708 232.102 24.5705C232.425 24.5539 232.745 24.6321 233.024 24.7955C233.25 24.9455 233.363 25.1898 233.363 25.5285C233.364 25.6416 233.347 25.7542 233.315 25.8626C233.285 25.9654 233.244 26.0648 233.194 26.159C233.024 26.159 232.85 26.1671 232.672 26.1833C232.494 26.1994 232.321 26.2237 232.151 26.256C231.981 26.2884 231.821 26.3234 231.673 26.3598C231.541 26.3895 231.413 26.4319 231.29 26.4864L231.295 30.6214Z" fill="#0C6B45"/>
<path d="M236.825 24.5584C237.227 24.5549 237.628 24.6001 238.019 24.6931C238.349 24.7683 238.661 24.9054 238.94 25.0973C239.191 25.2748 239.394 25.5124 239.529 25.7885C239.673 26.0974 239.743 26.4354 239.735 26.7761V29.4923C239.744 29.679 239.684 29.8624 239.565 30.007C239.445 30.1429 239.304 30.2593 239.148 30.3519C238.622 30.6672 237.882 30.8248 236.929 30.8248C236.539 30.829 236.15 30.7883 235.77 30.7036C235.456 30.635 235.156 30.5118 234.885 30.3398C234.645 30.1856 234.449 29.9727 234.315 29.7213C234.177 29.4513 234.109 29.1513 234.115 28.8483C234.115 28.2905 234.281 27.862 234.612 27.5629C234.944 27.2638 235.457 27.0779 236.152 27.0051L237.741 26.8354V26.7505C237.747 26.6451 237.72 26.5406 237.664 26.4508C237.609 26.361 237.528 26.2903 237.431 26.2479C237.149 26.1324 236.845 26.0804 236.541 26.0957C236.239 26.0951 235.938 26.1276 235.643 26.1927C235.374 26.2506 235.11 26.3318 234.855 26.4352C234.738 26.3495 234.645 26.2348 234.586 26.1024C234.514 25.957 234.476 25.797 234.476 25.6349C234.467 25.4549 234.52 25.2773 234.627 25.1323C234.755 24.9885 234.915 24.8779 235.095 24.8103C235.364 24.7136 235.643 24.649 235.927 24.6177C236.225 24.5793 236.525 24.5595 236.825 24.5584ZM236.922 29.3239C237.074 29.3228 237.226 29.3088 237.376 29.2821C237.505 29.2656 237.631 29.2263 237.746 29.1662V28.1962L236.873 28.2689C236.679 28.2766 236.489 28.3263 236.315 28.4144C236.248 28.4477 236.192 28.4998 236.153 28.5643C236.114 28.6288 236.095 28.703 236.097 28.7782C236.095 28.8541 236.111 28.9294 236.144 28.998C236.176 29.0665 236.224 29.1265 236.284 29.173C236.41 29.274 236.623 29.3239 236.922 29.3239Z" fill="#0C6B45"/>
<path d="M244.185 24.5584C244.515 24.5567 244.844 24.6021 245.161 24.6931C245.462 24.7768 245.745 24.9187 245.992 25.1108C246.246 24.9417 246.521 24.8059 246.81 24.7066C247.46 24.5094 248.153 24.4968 248.811 24.6702C249.095 24.7463 249.363 24.8761 249.599 25.0529C249.836 25.2351 250.026 25.4723 250.151 25.744C250.297 26.0736 250.368 26.4318 250.357 26.7922V30.6119C250.232 30.6449 250.104 30.6692 249.975 30.6847C249.796 30.7093 249.616 30.7214 249.436 30.721C249.275 30.7224 249.115 30.7102 248.956 30.6847C248.827 30.6657 248.705 30.6157 248.599 30.5392C248.499 30.4625 248.421 30.3601 248.374 30.2427C248.316 30.0854 248.29 29.9184 248.296 29.751V26.8623C248.305 26.7645 248.291 26.666 248.255 26.5745C248.219 26.4831 248.163 26.4013 248.09 26.3355C247.928 26.2186 247.731 26.1606 247.532 26.1711C247.407 26.1739 247.283 26.2009 247.168 26.2506C247.063 26.2891 246.965 26.3441 246.877 26.4136C246.885 26.4436 246.889 26.4743 246.889 26.5053V30.6213C246.759 30.6533 246.627 30.6776 246.494 30.6941C246.32 30.7184 246.144 30.7306 245.968 30.7305C245.807 30.7318 245.647 30.7197 245.488 30.6941C245.359 30.6751 245.237 30.6252 245.131 30.5486C245.031 30.4719 244.953 30.3695 244.906 30.2522C244.848 30.0949 244.822 29.9278 244.828 29.7604V26.8623C244.837 26.7628 244.821 26.6626 244.781 26.5707C244.742 26.4788 244.681 26.398 244.603 26.3355C244.446 26.2237 244.257 26.1661 244.064 26.1711C243.935 26.1682 243.808 26.1911 243.688 26.2385C243.596 26.276 243.506 26.3182 243.419 26.3651V30.6213C243.293 30.6543 243.165 30.6787 243.036 30.6941C242.857 30.7187 242.677 30.7308 242.497 30.7305C242.336 30.7318 242.176 30.7197 242.017 30.6941C241.888 30.6751 241.766 30.6252 241.66 30.5486C241.56 30.4719 241.482 30.3695 241.435 30.2522C241.378 30.0949 241.351 29.9278 241.357 29.7604V26.0997C241.346 25.9161 241.393 25.7336 241.492 25.5783C241.598 25.4364 241.727 25.3135 241.875 25.2145C242.188 25.0024 242.534 24.8426 242.898 24.7416C243.316 24.6182 243.75 24.5565 244.185 24.5584Z" fill="#0C6B45"/>
<path d="M254.407 24.5584C254.809 24.5549 255.21 24.6001 255.601 24.6931C255.931 24.7683 256.244 24.9054 256.523 25.0973C256.774 25.2748 256.976 25.5124 257.111 25.7885C257.255 26.0974 257.326 26.4354 257.317 26.7761V29.4923C257.325 29.6803 257.262 29.8643 257.141 30.0083C257.02 30.1443 256.88 30.2606 256.723 30.3532C256.198 30.6685 255.458 30.8262 254.504 30.8262C254.115 30.8303 253.726 30.7897 253.346 30.7049C253.031 30.6363 252.732 30.5132 252.46 30.3411C252.221 30.187 252.024 29.9741 251.89 29.7227C251.753 29.4527 251.684 29.1527 251.691 28.8496C251.691 28.2918 251.857 27.8634 252.188 27.5643C252.52 27.2652 253.033 27.0792 253.728 27.0065L255.317 26.8367V26.7518C255.322 26.6465 255.296 26.542 255.24 26.4522C255.185 26.3624 255.103 26.2916 255.007 26.2493C254.724 26.1347 254.42 26.0836 254.116 26.0997C253.814 26.0991 253.514 26.1317 253.219 26.1967C252.95 26.2547 252.686 26.3358 252.431 26.4393C252.314 26.3535 252.221 26.2389 252.161 26.1065C252.089 25.961 252.052 25.8011 252.052 25.6389C252.043 25.459 252.096 25.2813 252.203 25.1364C252.33 24.9925 252.491 24.882 252.671 24.8144C252.939 24.7174 253.217 24.6523 253.5 24.6204C253.801 24.5807 254.104 24.56 254.407 24.5584ZM254.504 29.3239C254.656 29.3228 254.808 29.3088 254.958 29.2821C255.088 29.2656 255.213 29.2263 255.329 29.1662V28.1962L254.456 28.2689C254.261 28.2766 254.071 28.3263 253.898 28.4144C253.83 28.4477 253.774 28.4998 253.735 28.5643C253.697 28.6288 253.677 28.703 253.68 28.7782C253.678 28.8541 253.694 28.9294 253.726 28.998C253.759 29.0665 253.807 29.1265 253.867 29.173C253.992 29.274 254.205 29.3239 254.504 29.3239Z" fill="#0C6B45"/>
<path d="M90.3691 42.238C90.3584 41.764 90.4408 41.2925 90.6116 40.8502C90.7595 40.4779 90.9898 40.144 91.2853 39.8734C91.5763 39.6127 91.9193 39.4166 92.2917 39.2981C92.6937 39.1699 93.1134 39.1062 93.5353 39.1095C93.6939 39.1094 93.8522 39.1239 94.0082 39.1526C94.1367 39.1737 94.2627 39.208 94.3841 39.255V37.2906C94.5118 37.2569 94.6414 37.2308 94.7722 37.2125C94.9504 37.1841 95.1306 37.1697 95.3111 37.1694C95.4713 37.168 95.6312 37.1802 95.7894 37.2057C95.9187 37.2249 96.0416 37.2748 96.1478 37.3512C96.2474 37.4277 96.3231 37.531 96.366 37.649C96.4197 37.8067 96.4444 37.9729 96.4388 38.1394V43.8844C96.439 44.0704 96.3891 44.2531 96.2942 44.4132C96.1994 44.5732 96.0632 44.7047 95.8999 44.7939C95.6163 44.969 95.3104 45.1049 94.9904 45.1981C94.1069 45.4446 93.1709 45.4297 92.2958 45.1549C91.9027 45.0234 91.5428 44.8083 91.2408 44.5244C90.9524 44.2475 90.7287 43.9103 90.586 43.5368C90.4339 43.121 90.3603 42.6806 90.3691 42.238ZM93.8129 40.7222C93.3763 40.7222 93.0408 40.8475 92.8064 41.0981C92.572 41.3488 92.4547 41.7287 92.4547 42.238C92.4547 42.7392 92.5639 43.1173 92.7822 43.3724C93.0004 43.6275 93.3148 43.7546 93.7253 43.7537C93.8594 43.7559 93.9927 43.7335 94.1187 43.6877C94.2166 43.6528 94.3078 43.6013 94.3882 43.5355V40.8678C94.2132 40.7679 94.0143 40.7177 93.8129 40.7222Z" fill="#0C6B45"/>
<path d="M101.21 45.3786C100.759 45.3829 100.311 45.3156 99.8813 45.1792C99.4882 45.0541 99.125 44.8496 98.8142 44.5783C98.5033 44.3007 98.2588 43.9567 98.0988 43.5718C97.9165 43.1216 97.828 42.6388 97.8388 42.1531C97.8265 41.6813 97.9152 41.2123 98.0988 40.7775C98.2509 40.4242 98.4776 40.1079 98.7634 39.8505C99.0493 39.593 99.3874 39.4005 99.7547 39.286C100.115 39.1691 100.491 39.1096 100.87 39.1095C101.268 39.1045 101.664 39.1702 102.04 39.3035C102.374 39.4241 102.683 39.607 102.949 39.8425C103.203 40.0665 103.405 40.3421 103.543 40.6509C103.687 40.9753 103.76 41.3267 103.756 41.6816C103.764 41.7969 103.748 41.9126 103.708 42.0213C103.668 42.1299 103.606 42.2289 103.526 42.3121C103.346 42.4695 103.121 42.567 102.883 42.591L99.888 43.0397C99.9316 43.1715 100.002 43.293 100.095 43.3964C100.187 43.4998 100.301 43.5829 100.427 43.6406C100.722 43.7779 101.045 43.8461 101.37 43.84C101.689 43.8424 102.006 43.7998 102.313 43.7133C102.566 43.646 102.809 43.5459 103.035 43.4156C103.17 43.5015 103.282 43.6178 103.363 43.7551C103.429 43.8616 103.471 43.9809 103.488 44.1051C103.505 44.2293 103.495 44.3556 103.46 44.4757C103.424 44.5959 103.364 44.7072 103.282 44.8025C103.201 44.8977 103.1 44.9746 102.987 45.0283C102.714 45.1704 102.419 45.2648 102.114 45.3072C101.815 45.3532 101.512 45.3771 101.21 45.3786ZM100.87 40.6131C100.697 40.6089 100.525 40.642 100.366 40.7101C100.235 40.7678 100.117 40.8528 100.021 40.9594C99.9333 41.0586 99.8652 41.1739 99.8207 41.2989C99.7769 41.4217 99.7506 41.5501 99.7425 41.6802L101.816 41.3407C101.779 41.155 101.684 40.9856 101.547 40.8556C101.457 40.7706 101.35 40.7051 101.234 40.6634C101.117 40.6216 100.994 40.6045 100.87 40.6131Z" fill="#0C6B45"/>
<path d="M109.625 38.0546C109.822 37.951 110.032 37.8735 110.249 37.8242C110.524 37.7519 110.808 37.7152 111.092 37.715C111.459 37.7081 111.825 37.7679 112.17 37.8915C112.305 37.9321 112.43 38.0027 112.534 38.0981C112.638 38.1936 112.719 38.3113 112.771 38.4426C112.917 38.863 113.074 39.352 113.244 39.9098C113.414 40.4676 113.584 41.0438 113.753 41.6385C113.923 42.2322 114.089 42.816 114.25 43.39C114.412 43.9639 114.554 44.475 114.675 44.9232C114.555 45.0495 114.405 45.1423 114.238 45.1927C114.015 45.2657 113.782 45.3003 113.547 45.2951C113.382 45.2981 113.217 45.2818 113.055 45.2466C112.937 45.2212 112.826 45.1717 112.728 45.1011C112.641 45.0333 112.57 44.9461 112.522 44.8464C112.466 44.7294 112.421 44.6076 112.387 44.4827L112.169 43.646H109.974C109.909 43.8885 109.845 44.1391 109.78 44.3978C109.715 44.6565 109.651 44.9071 109.586 45.1496C109.469 45.1914 109.349 45.226 109.228 45.2533C109.078 45.2837 108.926 45.2978 108.774 45.2951C108.361 45.2951 108.056 45.2246 107.857 45.0836C107.762 45.0184 107.685 44.9302 107.634 44.8273C107.582 44.7243 107.557 44.61 107.561 44.4948C107.561 44.3799 107.578 44.2656 107.61 44.1553C107.642 44.0421 107.678 43.9074 107.719 43.7511C107.775 43.5328 107.854 43.2633 107.954 42.9427C108.055 42.622 108.166 42.2726 108.289 41.8944C108.41 41.519 108.539 41.1328 108.677 40.7357L109.065 39.6148C109.186 39.2627 109.297 38.9483 109.397 38.6716C109.498 38.395 109.574 38.1893 109.625 38.0546ZM111.08 39.6188C110.967 39.9583 110.839 40.3365 110.698 40.7533C110.556 41.17 110.429 41.5922 110.316 42.0197H111.82C111.707 41.5832 111.591 41.157 111.474 40.7411C111.356 40.3253 111.249 39.9512 111.153 39.6188H111.08Z" fill="#0C6B45"/>
<path d="M117.968 45.1725C117.879 45.1886 117.747 45.2115 117.573 45.2398C117.399 45.268 117.223 45.2819 117.046 45.2816C116.885 45.283 116.725 45.2708 116.566 45.2452C116.437 45.2262 116.315 45.1763 116.209 45.0997C116.109 45.0231 116.031 44.9206 115.984 44.8033C115.927 44.646 115.9 44.479 115.906 44.3115V37.2825L116.3 37.2165C116.474 37.1879 116.651 37.1735 116.828 37.1734C116.988 37.172 117.148 37.1842 117.306 37.2098C117.436 37.229 117.558 37.2789 117.665 37.3553C117.765 37.4325 117.842 37.5354 117.888 37.653C117.946 37.8098 117.973 37.9764 117.968 38.1435V45.1725Z" fill="#0C6B45"/>
<path d="M119.58 37.6544C119.577 37.5109 119.602 37.3682 119.655 37.2349C119.708 37.1015 119.788 36.9802 119.889 36.8784C120.113 36.6756 120.405 36.5633 120.707 36.5633C121.01 36.5633 121.302 36.6756 121.526 36.8784C121.725 37.0877 121.836 37.3655 121.836 37.6544C121.836 37.9433 121.725 38.2211 121.526 38.4305C121.302 38.6333 121.01 38.7456 120.707 38.7456C120.405 38.7456 120.113 38.6333 119.889 38.4305C119.788 38.3286 119.708 38.2073 119.655 38.074C119.602 37.9406 119.577 37.7979 119.58 37.6544ZM121.736 45.1725C121.647 45.1887 121.515 45.2116 121.341 45.2399C121.167 45.268 120.991 45.2819 120.815 45.2816C120.654 45.283 120.494 45.2708 120.335 45.2452C120.206 45.2262 120.083 45.1763 119.978 45.0997C119.877 45.0231 119.8 44.9206 119.753 44.8033C119.695 44.646 119.669 44.479 119.675 44.3116V39.3763L120.068 39.3103C120.243 39.2817 120.419 39.2673 120.596 39.2672C120.756 39.2658 120.916 39.278 121.075 39.3035C121.204 39.3227 121.327 39.3726 121.433 39.4491C121.533 39.5263 121.61 39.6292 121.657 39.7468C121.715 39.9035 121.742 40.0701 121.736 40.2372V45.1725Z" fill="#0C6B45"/>
<path d="M126.238 39.1095C126.567 39.1078 126.896 39.1532 127.213 39.2442C127.515 39.328 127.797 39.4698 128.044 39.6619C128.299 39.4928 128.573 39.357 128.862 39.2577C129.513 39.0605 130.205 39.0479 130.863 39.2213C131.148 39.2974 131.415 39.4273 131.651 39.604C131.888 39.7862 132.078 40.0234 132.203 40.2951C132.35 40.6247 132.42 40.9829 132.41 41.3434V45.163C132.284 45.196 132.156 45.2203 132.027 45.2358C131.848 45.2604 131.668 45.2725 131.488 45.2721C131.327 45.2735 131.167 45.2613 131.008 45.2358C130.879 45.2168 130.757 45.1668 130.651 45.0903C130.551 45.0136 130.473 44.9112 130.426 44.7938C130.369 44.6365 130.342 44.4695 130.348 44.3021V41.4134C130.357 41.3156 130.343 41.2171 130.307 41.1257C130.272 41.0342 130.215 40.9524 130.142 40.8866C129.98 40.7697 129.784 40.7117 129.584 40.7222C129.459 40.725 129.336 40.752 129.221 40.8017C129.115 40.8402 129.017 40.8952 128.93 40.9648C128.937 40.9947 128.941 41.0255 128.942 41.0564V45.1724C128.812 45.2044 128.68 45.2287 128.547 45.2452C128.372 45.2695 128.196 45.2817 128.02 45.2816C127.859 45.2829 127.699 45.2708 127.54 45.2452C127.411 45.2262 127.289 45.1763 127.183 45.0997C127.083 45.023 127.005 44.9206 126.958 44.8033C126.901 44.646 126.874 44.4789 126.88 44.3115V41.4134C126.889 41.3139 126.873 41.2137 126.834 41.1218C126.794 41.0299 126.733 40.9492 126.655 40.8866C126.498 40.7749 126.309 40.7172 126.116 40.7222C125.988 40.7193 125.86 40.7422 125.74 40.7896C125.648 40.8271 125.558 40.8693 125.471 40.9163V45.1724C125.345 45.2054 125.217 45.2298 125.088 45.2452C124.91 45.2698 124.73 45.2819 124.549 45.2816C124.389 45.2829 124.228 45.2708 124.07 45.2452C123.941 45.2262 123.818 45.1763 123.713 45.0997C123.612 45.023 123.535 44.9206 123.488 44.8033C123.43 44.646 123.403 44.4789 123.41 44.3115V40.6508C123.399 40.4672 123.446 40.2848 123.544 40.1294C123.65 39.9875 123.78 39.8646 123.927 39.7656C124.24 39.5535 124.586 39.3938 124.951 39.2927C125.369 39.1694 125.802 39.1076 126.238 39.1095Z" fill="#0C6B45"/>
<path d="M137.151 45.3786C136.7 45.3829 136.252 45.3156 135.822 45.1792C135.429 45.0541 135.066 44.8496 134.755 44.5783C134.444 44.3007 134.2 43.9567 134.04 43.5718C133.858 43.1216 133.769 42.6388 133.78 42.1531C133.768 41.6813 133.856 41.2123 134.04 40.7775C134.192 40.4242 134.419 40.1079 134.705 39.8505C134.99 39.593 135.329 39.4004 135.696 39.286C136.056 39.1691 136.433 39.1095 136.811 39.1095C137.208 39.105 137.603 39.1707 137.977 39.3035C138.311 39.4241 138.62 39.607 138.886 39.8424C139.14 40.0665 139.342 40.3421 139.48 40.6508C139.624 40.9753 139.697 41.3267 139.693 41.6816C139.701 41.7969 139.685 41.9126 139.645 42.0212C139.605 42.1299 139.543 42.2289 139.463 42.3121C139.283 42.4695 139.058 42.567 138.82 42.591L135.825 43.0397C135.869 43.1722 135.941 43.294 136.035 43.3975C136.129 43.5009 136.243 43.5837 136.371 43.6406C136.666 43.7779 136.989 43.8461 137.314 43.84C137.633 43.8424 137.95 43.7998 138.257 43.7133C138.51 43.646 138.753 43.5459 138.979 43.4156C139.113 43.5015 139.226 43.6178 139.307 43.7551C139.373 43.8616 139.415 43.9809 139.432 44.1051C139.449 44.2293 139.439 44.3556 139.403 44.4757C139.368 44.5959 139.307 44.7072 139.226 44.8025C139.145 44.8977 139.044 44.9746 138.931 45.0283C138.658 45.1704 138.362 45.2648 138.058 45.3072C137.758 45.3534 137.455 45.3772 137.151 45.3786ZM136.811 40.6131C136.638 40.6089 136.467 40.642 136.308 40.7101C136.176 40.7678 136.059 40.8528 135.963 40.9594C135.874 41.0586 135.806 41.1739 135.762 41.2989C135.718 41.4217 135.692 41.5501 135.684 41.6802L137.757 41.3407C137.72 41.155 137.626 40.9856 137.488 40.8556C137.398 40.7706 137.291 40.7051 137.175 40.6634C137.059 40.6216 136.935 40.6045 136.811 40.6131Z" fill="#0C6B45"/>
<path d="M144.79 41.4498C144.799 41.3478 144.784 41.2452 144.747 41.1497C144.711 41.0542 144.652 40.9684 144.577 40.8988C144.413 40.7736 144.209 40.7111 144.002 40.7223C143.84 40.7222 143.679 40.7426 143.522 40.7829C143.378 40.818 143.241 40.8797 143.118 40.9648V45.1725C142.992 45.2055 142.865 45.2298 142.736 45.2452C142.557 45.2698 142.377 45.282 142.197 45.2816C142.036 45.283 141.876 45.2708 141.717 45.2452C141.588 45.2262 141.466 45.1763 141.36 45.0997C141.26 45.023 141.182 44.9206 141.135 44.8033C141.077 44.646 141.051 44.479 141.057 44.3115V40.6737C141.046 40.4846 141.093 40.2966 141.192 40.1348C141.295 39.9872 141.425 39.8598 141.574 39.7589C141.891 39.5453 142.241 39.3855 142.61 39.286C143.062 39.16 143.53 39.0987 143.999 39.1041C144.913 39.1041 145.616 39.3044 146.109 39.705C146.602 40.1056 146.849 40.6612 146.849 41.3717V45.1671C146.723 45.2001 146.595 45.2244 146.466 45.2398C146.288 45.2644 146.108 45.2766 145.927 45.2762C145.767 45.2776 145.606 45.2654 145.448 45.2398C145.319 45.2208 145.196 45.1709 145.091 45.0943C144.99 45.0176 144.913 44.9152 144.866 44.7979C144.808 44.6406 144.781 44.4736 144.788 44.3061L144.79 41.4498Z" fill="#0C6B45"/>
<path d="M150.55 43.1596C150.542 43.2452 150.556 43.3315 150.591 43.4102C150.626 43.4888 150.68 43.557 150.749 43.6082C150.92 43.7072 151.117 43.7541 151.314 43.743C151.44 43.7429 151.566 43.7329 151.69 43.7133C151.805 43.6962 151.919 43.6697 152.029 43.6338C152.103 43.7253 152.166 43.8253 152.217 43.9316C152.273 44.0551 152.3 44.1896 152.296 44.325C152.299 44.4684 152.27 44.6107 152.21 44.7409C152.15 44.8712 152.061 44.9861 151.95 45.0768C151.719 45.2708 151.315 45.3678 150.737 45.3678C150.026 45.3678 149.478 45.2062 149.094 44.8828C148.709 44.5594 148.517 44.034 148.518 43.3064V38.1152C148.607 38.0909 148.734 38.0653 148.9 38.037C149.074 38.0078 149.251 37.9934 149.428 37.9939C149.717 37.978 150.004 38.0434 150.258 38.1825C150.455 38.3083 150.555 38.5728 150.555 38.9761V39.7522H152.144C152.198 39.8595 152.243 39.9713 152.279 40.0863C152.325 40.229 152.348 40.3783 152.346 40.5282C152.346 40.8112 152.283 41.016 152.157 41.1413C152.091 41.2052 152.012 41.2549 151.926 41.2871C151.839 41.3193 151.747 41.3334 151.655 41.3286H150.551L150.55 43.1596Z" fill="#0C6B45"/>
<path d="M156.128 39.1095C156.53 39.106 156.931 39.1513 157.322 39.2442C157.652 39.3194 157.965 39.4565 158.243 39.6484C158.494 39.8259 158.697 40.0635 158.832 40.3396C158.976 40.6485 159.047 40.9865 159.038 41.3272V44.0434C159.045 44.2311 158.982 44.4146 158.861 44.5581C158.74 44.694 158.599 44.8104 158.443 44.903C157.916 45.2183 157.177 45.3759 156.224 45.3759C155.834 45.3802 155.445 45.3395 155.065 45.2546C154.751 45.1861 154.451 45.0629 154.18 44.8909C153.94 44.7367 153.744 44.5238 153.61 44.2724C153.472 44.0024 153.404 43.7024 153.41 43.3994C153.41 42.8416 153.576 42.4131 153.908 42.114C154.239 41.8149 154.752 41.629 155.448 41.5562L157.036 41.3865V41.3016C157.042 41.1963 157.015 41.0917 156.96 41.0019C156.904 40.9121 156.823 40.8414 156.726 40.799C156.444 40.6835 156.14 40.6316 155.836 40.6468C155.534 40.6462 155.233 40.6787 154.938 40.7438C154.669 40.8017 154.405 40.8829 154.15 40.9863C154.033 40.9006 153.94 40.7859 153.881 40.6535C153.809 40.5081 153.772 40.3482 153.772 40.186C153.762 40.0061 153.815 39.8284 153.922 39.6835C154.05 39.5396 154.21 39.4291 154.39 39.3615C154.659 39.2647 154.939 39.2001 155.223 39.1688C155.523 39.1301 155.825 39.1103 156.128 39.1095ZM156.225 43.875C156.377 43.8739 156.529 43.8599 156.679 43.8332C156.809 43.8167 156.934 43.7774 157.05 43.7174V42.7473L156.177 42.82C155.982 42.8277 155.792 42.8774 155.619 42.9655C155.551 42.9989 155.495 43.0509 155.456 43.1154C155.418 43.1799 155.398 43.2541 155.401 43.3293C155.399 43.4052 155.415 43.4805 155.447 43.5491C155.48 43.6176 155.528 43.6776 155.588 43.7241C155.713 43.8251 155.926 43.875 156.225 43.875Z" fill="#0C6B45"/>
<path d="M162.834 45.2695C162.479 45.1959 162.139 45.0648 161.827 44.8815C161.24 44.5372 160.797 43.9929 160.578 43.3482C160.461 43.0011 160.404 42.6366 160.409 42.2703C160.398 41.7908 160.487 41.3142 160.669 40.8705C160.827 40.491 161.07 40.1527 161.379 39.8815C161.682 39.6202 162.034 39.4222 162.415 39.2995C162.816 39.1687 163.236 39.1032 163.658 39.1055C164.24 39.1055 164.688 39.2106 165.006 39.4207C165.148 39.5026 165.266 39.6203 165.349 39.7621C165.432 39.9039 165.477 40.0649 165.478 40.2291C165.479 40.3799 165.441 40.5283 165.368 40.6603C165.3 40.7865 165.215 40.9026 165.115 41.0052C164.953 40.9317 164.786 40.8691 164.616 40.8179C164.412 40.7555 164.2 40.7246 163.987 40.7263C163.791 40.7253 163.596 40.7581 163.41 40.8233C163.235 40.8845 163.073 40.9818 162.937 41.1089C162.799 41.2403 162.69 41.3991 162.617 41.5751C162.531 41.7824 162.489 42.0055 162.494 42.2299C162.494 42.7311 162.638 43.107 162.925 43.3576C163.216 43.6095 163.59 43.7436 163.975 43.7335C164.188 43.7376 164.4 43.709 164.604 43.6487C164.766 43.5982 164.924 43.5374 165.078 43.4668C165.223 43.5641 165.347 43.6902 165.441 43.8373C165.525 43.9823 165.568 44.1479 165.563 44.3156C165.565 44.4353 165.541 44.5539 165.491 44.663C165.442 44.772 165.369 44.8687 165.278 44.9461C165.045 45.1349 164.766 45.2566 164.469 45.2978C164.542 45.4381 164.591 45.5898 164.613 45.7464C164.644 45.9064 164.66 46.0687 164.663 46.2315C164.67 46.4195 164.638 46.607 164.572 46.7829C164.505 46.9589 164.404 47.12 164.275 47.2568C164.015 47.5263 163.657 47.661 163.197 47.661C162.908 47.6733 162.622 47.5858 162.389 47.4131C162.284 47.3284 162.2 47.2198 162.145 47.0963C162.09 46.9728 162.066 46.838 162.074 46.703C162.071 46.58 162.088 46.4573 162.122 46.3393C162.338 46.3368 162.549 46.2718 162.729 46.152C162.798 46.1013 162.854 46.0345 162.892 45.9572C162.93 45.88 162.948 45.7947 162.946 45.7087C162.946 45.6292 162.936 45.5499 162.916 45.4729C162.895 45.4027 162.867 45.3347 162.834 45.2695Z" fill="#0C6B45"/>
<path d="M169.441 39.1095C169.843 39.106 170.245 39.1513 170.636 39.2443C170.966 39.3194 171.279 39.4566 171.558 39.6484C171.808 39.8259 172.01 40.0636 172.145 40.3396C172.289 40.6485 172.36 40.9865 172.351 41.3272V44.0434C172.359 44.2313 172.297 44.4153 172.176 44.5595C172.055 44.6955 171.914 44.8119 171.757 44.9044C171.232 45.2196 170.492 45.3773 169.538 45.3773C169.149 45.3815 168.76 45.3408 168.381 45.256C168.067 45.1874 167.767 45.0643 167.495 44.8922C167.256 44.7381 167.06 44.5252 166.926 44.2738C166.787 44.0039 166.718 43.7039 166.725 43.4007C166.725 42.843 166.89 42.4145 167.222 42.1154C167.553 41.8163 168.067 41.6304 168.762 41.5576L170.35 41.3878V41.303C170.356 41.1978 170.33 41.0933 170.274 41.0036C170.219 40.9138 170.138 40.8429 170.042 40.8004C169.759 40.6849 169.455 40.6329 169.15 40.6482C168.848 40.6476 168.547 40.6801 168.253 40.7452C167.983 40.8031 167.72 40.8842 167.464 40.9877C167.347 40.902 167.254 40.7873 167.195 40.6549C167.123 40.5095 167.086 40.3495 167.086 40.1874C167.077 40.0073 167.13 39.8296 167.238 39.6848C167.365 39.5409 167.525 39.4304 167.704 39.3628C167.973 39.2659 168.252 39.2007 168.536 39.1688C168.836 39.13 169.138 39.1102 169.441 39.1095ZM169.71 36.7328C169.856 36.7733 169.977 36.8056 170.074 36.8298C170.153 36.8515 170.235 36.8637 170.317 36.8662C170.393 36.8705 170.469 36.8587 170.54 36.8315C170.611 36.8044 170.675 36.7625 170.729 36.7086C170.808 36.6269 170.877 36.5365 170.935 36.4391C171.065 36.435 171.195 36.4566 171.317 36.5029C171.439 36.5491 171.55 36.619 171.645 36.7086C171.74 36.7995 171.815 36.9099 171.864 37.0321C171.913 37.1544 171.935 37.2857 171.929 37.4173C171.929 37.7811 171.816 38.0478 171.59 38.2176C171.343 38.3939 171.044 38.4834 170.741 38.4722C170.628 38.4724 170.514 38.4666 170.402 38.4547C170.274 38.4394 170.148 38.4128 170.026 38.3752L169.541 38.2297L169.256 38.1516C169.183 38.1316 169.107 38.1212 169.031 38.1206C168.957 38.1157 168.883 38.1268 168.813 38.153C168.743 38.1793 168.68 38.2201 168.627 38.2728C168.548 38.3555 168.476 38.4457 168.414 38.5423C168.284 38.5465 168.155 38.5249 168.033 38.4786C167.911 38.4323 167.8 38.3624 167.706 38.2728C167.612 38.1831 167.538 38.0745 167.488 37.9543C167.439 37.834 167.416 37.7048 167.42 37.5749C167.416 37.4215 167.448 37.2692 167.513 37.1303C167.578 36.9913 167.675 36.8695 167.796 36.7746C167.91 36.6856 168.04 36.6196 168.179 36.5806C168.318 36.5404 168.463 36.52 168.608 36.52C168.737 36.5221 168.865 36.5342 168.991 36.5563C169.233 36.6022 169.472 36.6611 169.708 36.7328H169.71ZM169.541 43.8737C169.693 43.8725 169.846 43.8586 169.996 43.8319C170.125 43.8153 170.25 43.7761 170.365 43.716V42.7459L169.492 42.8187C169.298 42.8264 169.108 42.876 168.934 42.9642C168.867 42.9975 168.81 43.0495 168.772 43.114C168.733 43.1785 168.714 43.2528 168.716 43.328C168.714 43.404 168.731 43.4793 168.763 43.5479C168.796 43.6164 168.845 43.6763 168.905 43.7228C169.027 43.8252 169.235 43.875 169.538 43.875L169.541 43.8737Z" fill="#0C6B45"/>
<path d="M180.075 42.238C180.084 42.6976 180.006 43.1547 179.845 43.5853C179.704 43.9581 179.483 44.2953 179.197 44.5729C178.91 44.8442 178.569 45.0509 178.196 45.1792C177.778 45.3214 177.339 45.3911 176.898 45.3853C176.456 45.3913 176.017 45.3173 175.601 45.1671C175.228 45.031 174.887 44.8185 174.601 44.5432C174.316 44.2638 174.095 43.9266 173.952 43.5543C173.645 42.7124 173.645 41.7891 173.952 40.9472C174.095 40.5754 174.317 40.2386 174.601 39.9596C174.887 39.6839 175.228 39.471 175.601 39.3345C176.017 39.1842 176.456 39.1103 176.898 39.1162C177.341 39.1104 177.781 39.1867 178.196 39.3412C178.569 39.4812 178.91 39.6958 179.197 39.9718C179.481 40.2508 179.702 40.5876 179.845 40.9594C180.002 41.3672 180.08 41.8011 180.075 42.238ZM175.831 42.238C175.831 42.7311 175.926 43.1092 176.117 43.3724C176.206 43.4993 176.325 43.6018 176.463 43.6706C176.602 43.7393 176.756 43.7721 176.91 43.7658C177.065 43.7721 177.218 43.7382 177.355 43.6673C177.493 43.5964 177.609 43.4911 177.693 43.3616C177.873 43.0922 177.963 42.7163 177.963 42.2339C177.963 41.7516 177.87 41.3779 177.684 41.113C177.592 40.9905 177.473 40.8912 177.336 40.8227C177.2 40.7543 177.049 40.7186 176.896 40.7186C176.743 40.7186 176.592 40.7543 176.455 40.8227C176.318 40.8912 176.199 40.9905 176.107 41.113C175.927 41.3788 175.837 41.7538 175.837 42.238H175.831Z" fill="#0C6B45"/>
<path d="M184.392 38.964C184.38 38.8128 184.401 38.6608 184.453 38.5184C184.505 38.376 184.588 38.2468 184.695 38.1395C184.803 38.0322 184.932 37.9496 185.074 37.8972C185.217 37.8449 185.369 37.8241 185.52 37.8363H189.522C189.588 37.9462 189.639 38.0645 189.674 38.1879C189.719 38.3374 189.741 38.4927 189.74 38.6487C189.74 38.9559 189.673 39.1742 189.54 39.3035C189.47 39.3693 189.386 39.4203 189.296 39.4536C189.205 39.4869 189.109 39.5019 189.012 39.4975H186.452V40.6252H189.181C189.246 40.7336 189.297 40.85 189.333 40.9715C189.378 41.1186 189.4 41.2717 189.399 41.4255C189.399 41.7327 189.334 41.951 189.205 42.0803C189.136 42.1464 189.054 42.1976 188.964 42.231C188.874 42.2643 188.779 42.2791 188.683 42.2744H186.454V43.5476H189.57C189.636 43.6575 189.687 43.7758 189.722 43.8992C189.767 44.0487 189.789 44.204 189.788 44.36C189.788 44.6672 189.722 44.8877 189.589 45.0216C189.519 45.0889 189.436 45.1414 189.345 45.1757C189.255 45.21 189.158 45.2254 189.061 45.221H185.52C185.369 45.2332 185.217 45.2124 185.074 45.16C184.932 45.1077 184.803 45.025 184.695 44.9177C184.588 44.8105 184.505 44.6812 184.453 44.5388C184.401 44.3965 184.38 44.2444 184.392 44.0933V38.964Z" fill="#0C6B45"/>
<path d="M196.215 43.4263C196.226 43.705 196.169 43.9823 196.049 44.2338C195.928 44.4854 195.748 44.7036 195.524 44.8693C195.063 45.2169 194.384 45.3908 193.487 45.3908C193.171 45.3924 192.855 45.3681 192.543 45.318C192.286 45.2798 192.035 45.2044 191.798 45.0943C191.609 45.0064 191.443 44.8754 191.313 44.7117C191.196 44.5567 191.134 44.367 191.137 44.1728C191.131 44.0012 191.173 43.8315 191.258 43.6823C191.334 43.5543 191.433 43.4411 191.549 43.3482C191.808 43.4879 192.078 43.6038 192.358 43.6945C192.697 43.8007 193.051 43.8516 193.406 43.8454C193.604 43.8561 193.802 43.8187 193.982 43.7362C194.04 43.712 194.09 43.6716 194.125 43.62C194.16 43.5684 194.18 43.5077 194.182 43.4452C194.184 43.3914 194.171 43.3382 194.145 43.2909C194.12 43.2435 194.082 43.2038 194.036 43.1757C193.886 43.0928 193.722 43.0393 193.551 43.0181L193.188 42.9454C192.484 42.8079 191.961 42.5919 191.618 42.2973C191.275 42.0027 191.103 41.5801 191.102 41.0295C191.097 40.75 191.162 40.4738 191.291 40.226C191.42 39.9781 191.61 39.7666 191.842 39.6107C192.099 39.4386 192.385 39.3115 192.685 39.2348C193.039 39.1421 193.404 39.0968 193.77 39.1001C194.052 39.099 194.334 39.1215 194.613 39.1675C194.849 39.2038 195.079 39.2709 195.297 39.3669C195.476 39.4444 195.634 39.563 195.758 39.7131C195.872 39.8556 195.932 40.0335 195.928 40.2157C195.933 40.3814 195.898 40.5459 195.826 40.6953C195.761 40.8224 195.672 40.9355 195.564 41.0281C195.472 40.9757 195.374 40.9332 195.273 40.9015C195.144 40.8565 195.002 40.8161 194.849 40.7802C194.695 40.7438 194.54 40.7128 194.383 40.6886C194.24 40.6656 194.096 40.6534 193.951 40.6522C193.741 40.6433 193.532 40.6744 193.333 40.7438C193.271 40.7615 193.216 40.7987 193.177 40.8499C193.138 40.9011 193.116 40.9636 193.115 41.0281C193.115 41.0718 193.126 41.1148 193.147 41.153C193.168 41.1912 193.199 41.2234 193.236 41.2464C193.379 41.3256 193.535 41.3789 193.697 41.404L194.073 41.4889C194.849 41.6685 195.401 41.9133 195.729 42.2232C195.89 42.3782 196.016 42.5655 196.1 42.7728C196.184 42.9802 196.223 43.2029 196.215 43.4263Z" fill="#0C6B45"/>
<path d="M200.956 40.7344C200.76 40.7332 200.566 40.7661 200.381 40.8314C200.205 40.8923 200.043 40.9896 199.907 41.117C199.769 41.2491 199.66 41.4077 199.586 41.5832C199.501 41.7908 199.46 42.0137 199.465 42.238C199.465 42.7392 199.608 43.1151 199.895 43.3657C200.185 43.6176 200.56 43.7517 200.944 43.7416C201.157 43.7457 201.37 43.7171 201.575 43.6567C201.736 43.6065 201.894 43.5457 202.048 43.4748C202.193 43.5717 202.317 43.6979 202.411 43.8454C202.495 43.9905 202.537 44.1561 202.533 44.3237C202.534 44.4836 202.491 44.6407 202.407 44.7771C202.323 44.9134 202.203 45.0234 202.06 45.0943C201.744 45.274 201.308 45.3638 200.75 45.3638C200.28 45.3705 199.812 45.2948 199.368 45.1401C198.975 45.0026 198.614 44.7883 198.306 44.5096C198.01 44.2371 197.777 43.9039 197.622 43.5328C197.456 43.1332 197.373 42.7041 197.379 42.2717C197.369 41.7921 197.457 41.3156 197.639 40.8718C197.798 40.4926 198.041 40.1545 198.349 39.8829C198.652 39.6218 199.005 39.4239 199.385 39.3008C199.787 39.17 200.207 39.1045 200.629 39.1068C201.211 39.1068 201.66 39.2119 201.976 39.4221C202.119 39.504 202.237 39.6216 202.32 39.7634C202.403 39.9052 202.447 40.0662 202.449 40.2305C202.45 40.3811 202.412 40.5295 202.34 40.6616C202.272 40.7882 202.186 40.9044 202.085 41.0065C201.924 40.933 201.758 40.8705 201.588 40.8193C201.383 40.759 201.17 40.7304 200.956 40.7344Z" fill="#0C6B45"/>
<path d="M209.845 42.238C209.853 42.6976 209.775 43.1547 209.614 43.5853C209.473 43.9585 209.252 44.2958 208.965 44.5729C208.679 44.8444 208.338 45.0512 207.965 45.1792C207.547 45.3214 207.109 45.3911 206.668 45.3853C206.225 45.3913 205.786 45.3173 205.37 45.1671C204.997 45.0313 204.656 44.8188 204.37 44.5432C204.086 44.2638 203.864 43.9266 203.721 43.5543C203.414 42.7124 203.414 41.7891 203.721 40.9472C203.864 40.5754 204.086 40.2386 204.37 39.9596C204.656 39.6837 204.997 39.4707 205.37 39.3345C205.786 39.1842 206.225 39.1103 206.668 39.1162C207.11 39.1104 207.55 39.1867 207.965 39.3412C208.338 39.4809 208.678 39.6955 208.965 39.9718C209.25 40.2504 209.471 40.5872 209.614 40.9594C209.771 41.3672 209.849 41.8011 209.845 42.238ZM205.6 42.238C205.6 42.7311 205.695 43.1097 205.886 43.3724C205.975 43.4994 206.094 43.602 206.232 43.6707C206.371 43.7395 206.525 43.7722 206.68 43.7658C206.834 43.7722 206.987 43.7382 207.124 43.6673C207.261 43.5965 207.377 43.4911 207.461 43.3616C207.644 43.0922 207.731 42.719 207.731 42.2339C207.731 41.7489 207.638 41.3757 207.452 41.113C207.36 40.9905 207.241 40.8912 207.104 40.8227C206.967 40.7543 206.816 40.7186 206.663 40.7186C206.511 40.7186 206.36 40.7543 206.223 40.8227C206.086 40.8912 205.967 40.9905 205.875 41.113C205.692 41.3788 205.6 41.7538 205.6 42.238Z" fill="#0C6B45"/>
<path d="M213.313 45.1725C213.224 45.1886 213.092 45.2115 212.918 45.2398C212.744 45.268 212.567 45.2819 212.391 45.2816C212.23 45.283 212.07 45.2708 211.911 45.2452C211.782 45.2262 211.66 45.1763 211.554 45.0997C211.454 45.0231 211.376 44.9206 211.329 44.8033C211.272 44.646 211.245 44.479 211.251 44.3115V37.2825L211.645 37.2165C211.819 37.1879 211.996 37.1735 212.173 37.1734C212.333 37.172 212.493 37.1842 212.651 37.2098C212.78 37.229 212.903 37.2789 213.009 37.3553C213.109 37.4325 213.187 37.5354 213.233 37.653C213.291 37.8098 213.318 37.9764 213.313 38.1435V45.1725Z" fill="#0C6B45"/>
<path d="M217.399 39.1095C217.801 39.106 218.202 39.1513 218.593 39.2442C218.923 39.3194 219.235 39.4565 219.514 39.6484C219.766 39.8255 219.968 40.0632 220.103 40.3396C220.247 40.6485 220.317 40.9865 220.309 41.3272V44.0434C220.317 44.2314 220.254 44.4154 220.133 44.5594C220.012 44.6954 219.871 44.8117 219.715 44.9043C219.189 45.2196 218.45 45.3773 217.496 45.3773C217.106 45.3815 216.718 45.3408 216.337 45.256C216.024 45.1877 215.724 45.0645 215.453 44.8922C215.213 44.7385 215.016 44.5255 214.882 44.2738C214.744 44.0038 214.676 43.7038 214.683 43.4007C214.683 42.8429 214.848 42.4145 215.18 42.1154C215.511 41.8163 216.025 41.6303 216.72 41.5576L218.308 41.3878V41.303C218.314 41.1976 218.287 41.0931 218.232 41.0033C218.176 40.9135 218.095 40.8427 217.998 40.8004C217.716 40.6848 217.412 40.6328 217.108 40.6481C216.806 40.6476 216.505 40.6801 216.211 40.7452C215.941 40.8031 215.678 40.8842 215.422 40.9877C215.305 40.902 215.212 40.7873 215.153 40.6549C215.081 40.5095 215.044 40.3495 215.044 40.1874C215.034 40.0074 215.088 39.8297 215.195 39.6848C215.322 39.541 215.482 39.4304 215.662 39.3628C215.93 39.2658 216.209 39.2007 216.492 39.1688C216.793 39.13 217.096 39.1102 217.399 39.1095ZM217.496 43.875C217.649 43.8738 217.801 43.8598 217.951 43.8332C218.08 43.8165 218.205 43.7772 218.32 43.7174V42.7473L217.447 42.82C217.253 42.8277 217.063 42.8774 216.89 42.9655C216.822 42.9989 216.766 43.0509 216.727 43.1154C216.688 43.1799 216.669 43.2541 216.671 43.3293C216.669 43.4052 216.685 43.4805 216.718 43.5491C216.75 43.6176 216.799 43.6776 216.859 43.7241C216.984 43.8251 217.199 43.875 217.496 43.875Z" fill="#0C6B45"/>
<path d="M223.996 45.1725C223.87 45.2055 223.742 45.2298 223.613 45.2452C223.434 45.2698 223.254 45.282 223.074 45.2816C222.913 45.283 222.753 45.2708 222.594 45.2452C222.465 45.2262 222.343 45.1763 222.237 45.0997C222.137 45.0231 222.059 44.9206 222.012 44.8033C221.955 44.646 221.928 44.479 221.934 44.3115V40.6738C221.929 40.5084 221.965 40.3444 222.036 40.1955C222.11 40.0566 222.211 39.9345 222.334 39.8371C222.481 39.7219 222.641 39.6263 222.813 39.5528C223.012 39.4644 223.217 39.3892 223.426 39.3278C223.647 39.2626 223.872 39.2122 224.099 39.1769C224.332 39.1404 224.567 39.1219 224.803 39.1216C225.125 39.105 225.446 39.1832 225.724 39.3466C225.951 39.4966 226.064 39.741 226.064 40.0796C226.064 40.1927 226.047 40.3053 226.015 40.4137C225.985 40.5165 225.945 40.6159 225.894 40.7101C225.724 40.7101 225.55 40.7182 225.372 40.7344C225.195 40.7506 225.021 40.7748 224.851 40.8071C224.681 40.8395 224.521 40.8745 224.371 40.9109C224.241 40.9408 224.113 40.9832 223.99 41.0375L223.996 45.1725Z" fill="#0C6B45"/>
<path d="M76.2693 22.5967C76.0403 26.0674 74.2106 30.426 71.2223 34.7226C70.4678 37.5439 69.2363 40.2008 67.4322 42.5209C64.9961 45.6666 62.0964 48.4241 58.8323 50.6992C66.8596 49.7237 73.4655 46.3581 76.6614 39.6309C79.5945 33.4629 79.0206 27.73 76.2693 22.5967Z" fill="#20AA73"/>
<path d="M42.2561 1.51508C33.803 0.673001 25.7042 2.35042 19.5712 5.21618C25.1491 4.18144 30.7917 3.91197 35.6582 3.86886C37.7966 2.92309 40.0019 2.13636 42.2561 1.51508Z" fill="#20AA73"/>
<path d="M63.6449 7.99976C65.0317 8.52381 66.3871 9.12751 67.7043 9.80787C66.3799 7.44735 64.8332 5.45736 63.1652 4.03188C57.3865 -0.904717 50.4438 -0.736302 42.3329 1.49352L42.2561 1.51508C47.5228 2.02571 52.644 3.53464 57.3461 5.96125C59.6137 6.57159 61.7627 7.27759 63.6449 7.99976Z" fill="#20AA73"/>
<path d="M50.1595 50.9013C48.9674 51.2792 47.7523 51.5802 46.5217 51.8027C28.9189 54.9702 14.4204 49.2117 9.45142 42.0278C10.3582 47.0129 13.5702 51.5211 20.0428 54.8207C28.9351 59.3544 45.6136 59.9014 58.8282 50.7019C55.9507 51.0322 53.0491 51.099 50.1595 50.9013Z" fill="#20AA73"/>
<path d="M67.4322 42.5236C69.2363 40.2035 70.4678 37.5466 71.2223 34.7253C66.5067 41.5118 58.905 48.1487 50.1595 50.9013C53.0505 51.0992 55.9535 51.0325 58.8323 50.7019C62.0964 48.4268 64.9961 45.6693 67.4322 42.5236Z" fill="#198459"/>
<path d="M43.9982 3.91465C48.245 3.93486 53.0185 4.78233 57.3367 5.95451C52.6346 3.5279 47.5133 2.01896 42.2467 1.50833C39.9912 2.12898 37.7845 2.91526 35.6448 3.86076C38.8514 3.83786 41.7104 3.90388 43.9982 3.91465Z" fill="#198459"/>
<path d="M76.2693 22.5967C76.2828 22.4013 76.2922 22.2073 76.2949 22.0174C76.3744 16.4192 73.1031 12.6319 67.7043 9.80789C68.5657 11.3556 69.3015 12.9699 69.9045 14.6354C72.5466 17.0861 74.7428 19.7498 76.2693 22.5967Z" fill="#20AA73"/>
<path d="M11.1531 29.6688C8.80604 25.1081 7.93163 20.3264 8.69691 15.9005C9.37057 12.0377 13.5082 8.04826 19.5712 5.21619C14.8003 6.10003 10.0779 7.54167 5.92817 9.88198C-3.20939 15.0315 -0.22912 22.5468 4.51885 23.94C8.15663 25.003 11.6947 26.5228 8.37355 33.4157C7.02623 36.206 7.51665 39.2254 9.45141 42.0278C8.73868 38.0909 9.46084 33.8495 11.1531 29.6688Z" fill="#20AA73"/>
<path d="M69.9045 14.6354C72.1519 20.7859 72.9697 28.1948 71.2222 34.7253C74.2106 30.426 76.0403 26.0674 76.2693 22.5994C74.7428 19.7498 72.5466 17.0861 69.9045 14.6354Z" fill="#198459"/>
<path d="M8.69692 15.9005C7.93164 20.3264 8.80605 25.1081 11.1531 29.6688C11.3076 29.2816 11.4711 28.8968 11.6435 28.5141C13.4611 24.456 19.7746 10.8992 35.6582 3.86749C30.7917 3.91195 25.1491 4.18142 19.5712 5.21482C13.5082 8.04555 9.36385 12.0377 8.69692 15.9005Z" fill="#198459"/>
<path d="M46.5257 51.8027C47.7563 51.5802 48.9714 51.2792 50.1635 50.9013C46.3207 50.6422 42.5062 50.0626 38.7598 49.1686C25.1114 45.9701 15.5507 38.2068 11.1571 29.6688C9.46486 33.8455 8.74269 38.0896 9.45947 42.0278C14.4271 49.2118 28.9229 54.9702 46.5257 51.8027Z" fill="#198459"/>
<path d="M57.3407 5.95453C57.625 6.10273 57.9093 6.25229 58.1922 6.40723C62.5037 8.77178 66.5604 11.5338 69.9045 14.6353C69.3015 12.9699 68.5657 11.3556 67.7043 9.80788C66.3871 9.12753 65.0317 8.52382 63.6448 7.99977C61.7626 7.2776 59.6136 6.5716 57.3407 5.95453Z" fill="#198459"/>
<path d="M69.9046 14.6353C66.5605 11.5365 62.5037 8.77178 58.1923 6.40722C57.9093 6.25228 57.625 6.10273 57.3408 5.95452C53.0185 4.78235 48.245 3.93353 44.0022 3.91467C41.7118 3.90389 38.8554 3.83787 35.6623 3.86751C19.7787 10.8992 13.4651 24.456 11.6475 28.5141C11.4751 28.8977 11.3116 29.2826 11.1571 29.6688C15.5507 38.2068 25.1114 45.9714 38.7598 49.1686C42.5062 50.0626 46.3207 50.6422 50.1635 50.9013C58.909 48.1487 66.5093 41.5118 71.2263 34.7253C72.9697 28.1948 72.1519 20.7859 69.9046 14.6353Z" fill="#0C6B45"/>
<path d="M22.317 28.8483C21.8454 28.6884 21.4179 28.5254 21.0343 28.3592C20.6751 28.2091 20.34 28.0066 20.04 27.7583C19.7654 27.5277 19.5439 27.2404 19.3906 26.9162C19.2253 26.5401 19.1457 26.1319 19.1575 25.7211C19.1447 25.3001 19.2335 24.8821 19.4164 24.5027C19.5993 24.1232 19.871 23.7934 20.2084 23.5412C20.9073 22.9951 21.8876 22.7224 23.1496 22.7233C23.579 22.7213 24.0079 22.7532 24.4323 22.819C24.7841 22.8701 25.127 22.9703 25.4509 23.1168C25.7103 23.232 25.9385 23.4075 26.1164 23.6288C26.2767 23.838 26.3612 24.0955 26.3563 24.359C26.3639 24.6102 26.2973 24.8581 26.165 25.0717C26.0397 25.2656 25.882 25.4365 25.6988 25.577C25.4047 25.4021 25.0871 25.27 24.7557 25.1849C24.3316 25.0701 23.8935 25.0152 23.4541 25.0219C22.9731 25.0219 22.6215 25.0879 22.3965 25.2213C22.2996 25.2667 22.2169 25.3378 22.1575 25.4269C22.0982 25.516 22.0643 25.6196 22.0597 25.7265C22.059 25.8043 22.0777 25.881 22.1142 25.9497C22.1507 26.0184 22.2037 26.0769 22.2685 26.12C22.4605 26.2462 22.6716 26.3409 22.8936 26.4002L23.7438 26.6697C24.7471 26.9903 25.5191 27.3995 26.0599 27.8971C26.6006 28.3947 26.8701 29.0706 26.8683 29.9248C26.8782 30.3517 26.7855 30.7747 26.5979 31.1583C26.4104 31.5418 26.1334 31.8748 25.7904 32.129C25.0718 32.6904 24.0191 32.9711 22.6323 32.9711C22.1724 32.9738 21.7132 32.9336 21.2607 32.8512C20.8779 32.7832 20.5059 32.6645 20.1545 32.4982C19.8675 32.3657 19.6152 32.1683 19.4176 31.9215C19.2405 31.6952 19.1455 31.4154 19.1481 31.128C19.1397 30.8397 19.2353 30.558 19.4176 30.3344C19.5809 30.1295 19.7822 29.958 20.0104 29.8291C20.3453 30.0837 20.7151 30.2888 21.1084 30.4381C21.5608 30.6127 22.0423 30.6996 22.5272 30.6941C23.0513 30.6941 23.4191 30.6146 23.6333 30.4543C23.7285 30.3938 23.8074 30.311 23.8633 30.2131C23.9192 30.1152 23.9503 30.0051 23.954 29.8925C23.9581 29.7956 23.9366 29.6994 23.8917 29.6136C23.8467 29.5277 23.7799 29.4552 23.698 29.4034C23.471 29.266 23.2286 29.1556 22.9758 29.0746L22.317 28.8483Z" fill="white"/>
<path d="M30.7176 32.6477C30.5357 32.6918 30.3512 32.7242 30.1652 32.7447C29.9176 32.7757 29.6683 32.7915 29.4188 32.7919C29.2011 32.7941 28.9836 32.7756 28.7694 32.7367C28.5987 32.7058 28.4372 32.6372 28.2965 32.5359C28.1634 32.4318 28.0633 32.2914 28.0082 32.1317C27.9367 31.9146 27.9043 31.6865 27.9125 31.458V23.0009C28.0297 22.9793 28.217 22.951 28.473 22.9133C28.7169 22.8765 28.9632 22.8576 29.21 22.8567C29.4278 22.8541 29.6453 22.8731 29.8594 22.9133C30.0302 22.9435 30.1919 23.0121 30.3323 23.1141C30.4666 23.2173 30.5673 23.3579 30.622 23.5183C30.6925 23.7356 30.7248 23.9635 30.7176 24.1919V32.6477Z" fill="white"/>
<path d="M41.1229 31.1253C41.1418 31.3833 41.0801 31.6408 40.9465 31.8622C40.7928 32.0533 40.6022 32.2114 40.386 32.3271C40.2063 32.4263 40.0183 32.5097 39.8241 32.5763C39.5831 32.661 39.337 32.7303 39.0872 32.7838C38.8092 32.8445 38.5281 32.8895 38.2451 32.9185C37.9547 32.9507 37.6628 32.9669 37.3707 32.967C36.6378 32.9726 35.9082 32.8672 35.2069 32.6545C34.5651 32.4622 33.9692 32.1413 33.4553 31.7113C32.9501 31.2789 32.5474 30.7396 32.2764 30.1323C31.9841 29.4189 31.8372 28.6544 31.8441 27.8836C31.851 27.1127 32.0118 26.3509 32.3169 25.643C32.6117 25.0168 33.0382 24.4617 33.5672 24.0154C34.0919 23.5796 34.6964 23.2501 35.347 23.0453C36.0128 22.8318 36.7079 22.7236 37.4071 22.7247C38.4229 22.7247 39.2273 22.8877 39.8201 23.2138C40.4129 23.5398 40.7098 23.9647 40.7107 24.4883C40.7169 24.7444 40.6439 24.9961 40.5019 25.2091C40.3752 25.4003 40.2117 25.5643 40.0208 25.6915C39.7005 25.5058 39.3652 25.3472 39.0184 25.2172C38.5873 25.0583 38.1306 24.9798 37.6711 24.9855C36.7729 24.9855 36.0593 25.2419 35.5302 25.7548C35.0012 26.2677 34.7366 26.9786 34.7366 27.8876C34.7269 28.3224 34.8005 28.7551 34.9536 29.1622C35.0807 29.4957 35.2804 29.7967 35.5383 30.0433C35.7822 30.2727 36.072 30.4476 36.3885 30.5567C36.7183 30.6703 37.065 30.7273 37.4138 30.7251C37.624 30.7278 37.8338 30.7061 38.0389 30.6604C38.184 30.6314 38.3245 30.5829 38.4566 30.5163V29.0086H36.7401C36.6638 28.8601 36.6024 28.7044 36.5569 28.5438C36.4969 28.3464 36.467 28.1411 36.468 27.9348C36.468 27.5495 36.5578 27.2715 36.7374 27.1008C36.8279 27.0146 36.9347 26.9474 37.0516 26.9032C37.1684 26.859 37.293 26.8387 37.4178 26.8435H40.1273C40.2635 26.8293 40.4011 26.8457 40.5301 26.8915C40.6592 26.9372 40.7764 27.0112 40.8732 27.108C40.97 27.2049 41.044 27.3221 41.0898 27.4511C41.1355 27.5801 41.1519 27.7178 41.1378 27.8539L41.1229 31.1253Z" fill="white"/>
<path d="M45.2916 32.6477C45.1093 32.6919 44.9243 32.7243 44.7379 32.7447C44.4907 32.7757 44.2419 32.7915 43.9928 32.7919C43.775 32.7942 43.5576 32.7757 43.3434 32.7367C43.1728 32.7058 43.0112 32.6372 42.8705 32.5359C42.7371 32.4321 42.6368 32.2916 42.5821 32.1317C42.5101 31.9147 42.4773 31.6866 42.4851 31.458V23.9103C42.4792 23.8155 42.4925 23.7204 42.5242 23.6308C42.556 23.5412 42.6055 23.4589 42.6697 23.3889C42.8135 23.2531 42.9863 23.1518 43.175 23.0925C43.578 22.9552 43.9944 22.8608 44.4172 22.8109C44.8829 22.7527 45.3518 22.7234 45.8211 22.7233C47.2951 22.7233 48.4224 23.0377 49.2029 23.6665C49.9835 24.2952 50.3737 25.1485 50.3737 26.2264C50.3811 26.7107 50.2969 27.192 50.1258 27.6451C49.965 28.0598 49.7126 28.4329 49.3875 28.7364C49.0319 29.0579 48.6109 29.2983 48.1533 29.4411C47.596 29.6161 47.0142 29.7002 46.4301 29.6904H45.2916V32.6477ZM46.1256 27.5009C46.5747 27.5009 46.9192 27.3968 47.159 27.1884C47.3988 26.98 47.5192 26.662 47.5201 26.2345C47.5317 26.0591 47.5038 25.8833 47.4385 25.7201C47.3732 25.5569 47.2722 25.4104 47.1428 25.2913C46.8922 25.0731 46.5257 24.9626 46.0448 24.9626C45.8741 24.9626 45.7326 24.9653 45.6204 24.9707C45.5046 24.9765 45.3894 24.99 45.2754 25.0111V27.5009H46.1256Z" fill="white"/>
<path d="M52.9067 23.2852C53.1675 23.1476 53.4451 23.0448 53.7326 22.9793C54.0963 22.8841 54.4708 22.8356 54.8468 22.8352C55.3299 22.8266 55.8106 22.9056 56.2656 23.0682C56.6778 23.2232 56.9392 23.4724 57.0591 23.7971C57.2513 24.3531 57.4597 24.9999 57.6843 25.7373C57.9089 26.4747 58.1334 27.2382 58.358 28.0277C58.5834 28.8137 58.8026 29.5884 59.0154 30.3519C59.2283 31.1154 59.4156 31.7917 59.5773 32.3809C59.4191 32.5492 59.2199 32.6736 58.9993 32.742C58.7046 32.8381 58.3957 32.8836 58.0858 32.8768C57.8675 32.8807 57.6496 32.859 57.4364 32.8121C57.2804 32.7787 57.1331 32.7131 57.0039 32.6194C56.8889 32.5298 56.7966 32.4144 56.7344 32.2826C56.6592 32.128 56.5979 31.9671 56.5512 31.8016L56.2615 30.6954H53.3607C53.2745 31.0161 53.1896 31.3476 53.1034 31.6898C53.0172 32.032 52.9323 32.3634 52.8474 32.6841C52.6926 32.7386 52.5347 32.7836 52.3745 32.8188C52.1764 32.8597 51.9744 32.8787 51.7722 32.8754C51.2333 32.8754 50.8291 32.7811 50.5596 32.5938C50.4338 32.508 50.3317 32.3917 50.2629 32.2557C50.1941 32.1198 50.1609 31.9687 50.1662 31.8164C50.1666 31.6646 50.1884 31.5135 50.2309 31.3678C50.274 31.2182 50.3212 31.0417 50.375 30.8383C50.4492 30.5499 50.5542 30.1929 50.6876 29.7604C50.821 29.3279 50.9679 28.8712 51.1282 28.374C51.2885 27.8768 51.4596 27.3662 51.6415 26.8421C51.8234 26.318 51.9945 25.8249 52.1549 25.36C52.3152 24.8952 52.4621 24.4802 52.5954 24.1165C52.7288 23.7527 52.8326 23.4765 52.9067 23.2852ZM54.8306 25.3533C54.6815 25.8024 54.5131 26.3018 54.3254 26.8515C54.1377 27.4012 53.9697 27.959 53.8215 28.5249H55.8088C55.6597 27.9474 55.5075 27.3833 55.3521 26.8327C55.1967 26.2821 55.0552 25.788 54.9277 25.3506L54.8306 25.3533Z" fill="white"/>
<path d="M60.4114 24.4829C60.3965 24.2838 60.425 24.0838 60.4947 23.8968C60.5645 23.7097 60.6739 23.5399 60.8155 23.3991C60.957 23.2583 61.1274 23.1498 61.3149 23.0811C61.5023 23.0123 61.7025 22.985 61.9015 23.0009H67.1924C67.2793 23.1464 67.3468 23.3027 67.3932 23.4657C67.4521 23.6638 67.4816 23.8694 67.4807 24.076C67.4807 24.4811 67.3909 24.7695 67.2113 24.941C67.1179 25.0282 67.0081 25.0959 66.8883 25.1401C66.7684 25.1843 66.641 25.2041 66.5134 25.1984H63.1302V26.6885H66.7384C66.9285 27.0089 67.0281 27.3749 67.0267 27.7475C67.0267 28.1526 66.9414 28.4409 66.7707 28.6125C66.6792 28.6999 66.5708 28.7678 66.4522 28.812C66.3336 28.8563 66.2073 28.8759 66.0809 28.8698H63.1302V30.5459H67.2517C67.338 30.6917 67.4055 30.8479 67.4525 31.0107C67.5114 31.2088 67.5409 31.4144 67.54 31.6211C67.54 32.0262 67.4502 32.3172 67.2706 32.4941C67.1788 32.5843 67.0695 32.6547 66.9495 32.701C66.8295 32.7474 66.7012 32.7687 66.5727 32.7636H61.8907C61.6909 32.7799 61.4899 32.7525 61.3017 32.6834C61.1135 32.6143 60.9426 32.5051 60.8009 32.3633C60.6591 32.2215 60.5499 32.0506 60.4808 31.8624C60.4116 31.6743 60.3843 31.4733 60.4006 31.2735L60.4114 24.4829Z" fill="white"/>
</svg>
